  0
SECTION
  2
HEADER
  9
$ACADVER
  1
AC1014
  9
$HANDSEED
  5
FFFF
  9
$MEASUREMENT
 70
     1
  0
ENDSEC
  0
SECTION
  2
TABLES
  0
TABLE
  2
VPORT
  5
8
330
0
100
AcDbSymbolTable
 70
     4
  0
VPORT
  5
2E
330
8
100
AcDbSymbolTableRecord
100
AcDbViewportTableRecord
  2
*ACTIVE
 70
     0
 10
0.0
 20
0.0
 11
1.0
 21
1.0
 12
210.0
 22
148.5
 13
0.0
 23
0.0
 14
10.0
 24
10.0
 15
10.0
 25
10.0
 16
0.0
 26
0.0
 36
1.0
 17
0.0
 27
0.0
 37
0.0
 40
341.0
 41
1.24
 42
50.0
 43
0.0
 44
0.0
 50
0.0
 51
0.0
 71
     0
 72
   100
 73
     1
 74
     3
 75
     0
 76
     0
 77
     0
 78
     0
  0
ENDTAB
  0
TABLE
  2
LTYPE
  5
5
330
0
100
AcDbSymbolTable
 70
     1
  0
LTYPE
  5
14
330
5
100
AcDbSymbolTableRecord
100
AcDbLinetypeTableRecord
  2
BYBLOCK
 70
     0
  3

 72
    65
 73
     0
 40
0.0
  0
LTYPE
  5
15
330
5
100
AcDbSymbolTableRecord
100
AcDbLinetypeTableRecord
  2
BYLAYER
 70
     0
  3

 72
    65
 73
     0
 40
0.0
  0
LTYPE
  5
16
330
5
100
AcDbSymbolTableRecord
100
AcDbLinetypeTableRecord
  2
CONTINUOUS
 70
     0
  3
Solid line
 72
    65
 73
     0
 40
0.0
  0
ENDTAB
  0
TABLE
  2
LAYER
  5
2
100
AcDbSymbolTable
 70
1
  0
LAYER
  5
50
100
AcDbSymbolTableRecord
100
AcDbLayerTableRecord
  2
0
 70
0
  6
CONTINUOUS
  0
ENDTAB
  0
TABLE
  2
STYLE
  5
3
330
0
100
AcDbSymbolTable
 70
     1
  0
STYLE
  5
11
330
3
100
AcDbSymbolTableRecord
100
AcDbTextStyleTableRecord
  2
STANDARD
 70
     0
 40
0.0
 41
1.0
 50
0.0
 71
     0
 42
2.5
  3
txt
  4

  0
ENDTAB
  0
TABLE
  2
VIEW
  5
6
330
0
100
AcDbSymbolTable
 70
     0
  0
ENDTAB
  0
TABLE
  2
UCS
  5
7
330
0
100
AcDbSymbolTable
 70
     0
  0
ENDTAB
  0
TABLE
  2
APPID
  5
9
330
0
100
AcDbSymbolTable
 70
     2
  0
APPID
  5
12
330
9
100
AcDbSymbolTableRecord
100
AcDbRegAppTableRecord
  2
ACAD
 70
     0
  0
ENDTAB
  0
TABLE
  2
DIMSTYLE
  5
A
330
0
100
AcDbSymbolTable
 70
     1
  0
DIMSTYLE
105
27
330
A
100
AcDbSymbolTableRecord
100
AcDbDimStyleTableRecord
  2
ISO-25
 70
     0
  3

  4

  5

  6

  7

 40
1.0
 41
2.5
 42
0.625
 43
3.75
 44
1.25
 45
0.0
 46
0.0
 47
0.0
 48
0.0
140
2.5
141
2.5
142
0.0
143
0.03937007874016
144
1.0
145
0.0
146
1.0
147
0.625
 71
     0
 72
     0
 73
     0
 74
     0
 75
     0
 76
     0
 77
     1
 78
     8
170
     0
171
     3
172
     1
173
     0
174
     0
175
     0
176
     0
177
     0
178
     0
270
     2
271
     2
272
     2
273
     2
274
     3
340
11
275
     0
280
     0
281
     0
282
     0
283
     0
284
     8
285
     0
286
     0
287
     3
288
     0
  0
ENDTAB
  0
TABLE
  2
BLOCK_RECORD
  5
1
330
0
100
AcDbSymbolTable
 70
     1
  0
BLOCK_RECORD
  5
1F
330
1
100
AcDbSymbolTableRecord
100
AcDbBlockTableRecord
  2
*MODEL_SPACE
  0
BLOCK_RECORD
  5
1B
330
1
100
AcDbSymbolTableRecord
100
AcDbBlockTableRecord
  2
*PAPER_SPACE
  0
ENDTAB
  0
ENDSEC
  0
SECTION
  2
BLOCKS
  0
BLOCK
  5
20
330
1F
100
AcDbEntity
  8
0
100
AcDbBlockBegin
  2
*MODEL_SPACE
 70
     0
 10
0.0
 20
0.0
 30
0.0
  3
*MODEL_SPACE
  1

  0
ENDBLK
  5
21
330
1F
100
AcDbEntity
  8
0
100
AcDbBlockEnd
  0
BLOCK
  5
1C
330
1B
100
AcDbEntity
 67
     1
  8
0
100
AcDbBlockBegin
  2
*PAPER_SPACE
  1

  0
ENDBLK
  5
1D
330
1B
100
AcDbEntity
 67
     1
  8
0
100
AcDbBlockEnd
  0
ENDSEC
  0
SECTION
  2
ENTITIES
  0
SPLINE
  5
100
100
AcDbEntity
  8
0
 62
7
100
AcDbSpline
 70
8
 71
3
 72
8
 73
4
 74
0
 40
0
 40
0
 40
0
 40
0
 40
1
 40
1
 40
1
 40
1
 10
245.900431
 20
10.500000
 30
0.0
 10
245.900431
 20
10.632608
 30
0.0
 10
245.847753
 20
10.759785
 30
0.0
 10
245.753984
 20
10.853553
 30
0.0
  0
SPLINE
  5
101
100
AcDbEntity
  8
0
 62
7
100
AcDbSpline
 70
8
 71
3
 72
8
 73
4
 74
0
 40
0
 40
0
 40
0
 40
0
 40
1
 40
1
 40
1
 40
1
 10
245.753984
 20
10.853553
 30
0.0
 10
245.660216
 20
10.947322
 30
0.0
 10
245.533039
 20
11.000000
 30
0.0
 10
245.400431
 20
11.000000
 30
0.0
  0
SPLINE
  5
102
100
AcDbEntity
  8
0
 62
7
100
AcDbSpline
 70
8
 71
3
 72
8
 73
4
 74
0
 40
0
 40
0
 40
0
 40
0
 40
1
 40
1
 40
1
 40
1
 10
245.400431
 20
11.000000
 30
0.0
 10
245.400431
 20
11.000000
 30
0.0
 10
237.400431
 20
11.000000
 30
0.0
 10
237.400431
 20
11.000000
 30
0.0
  0
SPLINE
  5
103
100
AcDbEntity
  8
0
 62
7
100
AcDbSpline
 70
8
 71
3
 72
8
 73
4
 74
0
 40
0
 40
0
 40
0
 40
0
 40
1
 40
1
 40
1
 40
1
 10
237.400431
 20
11.000000
 30
0.0
 10
237.267823
 20
11.000000
 30
0.0
 10
237.140646
 20
10.947322
 30
0.0
 10
237.046878
 20
10.853553
 30
0.0
  0
SPLINE
  5
104
100
AcDbEntity
  8
0
 62
7
100
AcDbSpline
 70
8
 71
3
 72
8
 73
4
 74
0
 40
0
 40
0
 40
0
 40
0
 40
1
 40
1
 40
1
 40
1
 10
237.046878
 20
10.853553
 30
0.0
 10
236.953109
 20
10.759785
 30
0.0
 10
236.900431
 20
10.632608
 30
0.0
 10
236.900431
 20
10.500000
 30
0.0
  0
SPLINE
  5
105
100
AcDbEntity
  8
0
 62
7
100
AcDbSpline
 70
8
 71
3
 72
8
 73
4
 74
0
 40
0
 40
0
 40
0
 40
0
 40
1
 40
1
 40
1
 40
1
 10
236.900431
 20
10.500000
 30
0.0
 10
236.900431
 20
10.500000
 30
0.0
 10
236.900431
 20
4.500000
 30
0.0
 10
236.900431
 20
4.500000
 30
0.0
  0
SPLINE
  5
106
100
AcDbEntity
  8
0
 62
7
100
AcDbSpline
 70
8
 71
3
 72
8
 73
4
 74
0
 40
0
 40
0
 40
0
 40
0
 40
1
 40
1
 40
1
 40
1
 10
236.900431
 20
4.500000
 30
0.0
 10
236.900431
 20
4.367392
 30
0.0
 10
236.953109
 20
4.240215
 30
0.0
 10
237.046878
 20
4.146447
 30
0.0
  0
SPLINE
  5
107
100
AcDbEntity
  8
0
 62
7
100
AcDbSpline
 70
8
 71
3
 72
8
 73
4
 74
0
 40
0
 40
0
 40
0
 40
0
 40
1
 40
1
 40
1
 40
1
 10
237.046878
 20
4.146447
 30
0.0
 10
237.140646
 20
4.052678
 30
0.0
 10
237.267823
 20
4.000000
 30
0.0
 10
237.400431
 20
4.000000
 30
0.0
  0
LWPOLYLINE
  5
108
100
AcDbEntity
  8
0
 62
7
100
AcDbPolyline
 90
79
 70
1
 10
0.000000
 20
2.386413
 30
0.0
 10
0.000000
 20
92.874052
 30
0.0
 10
0.000000
 20
92.874052
 30
0.0
 10
0.011680
 20
93.109402
 30
0.0
 10
0.046282
 20
93.340753
 30
0.0
 10
0.103145
 20
93.566544
 30
0.0
 10
0.181610
 20
93.785214
 30
0.0
 10
0.281018
 20
93.995204
 30
0.0
 10
0.400709
 20
94.194951
 30
0.0
 10
0.540024
 20
94.382897
 30
0.0
 10
0.698304
 20
94.557480
 30
0.0
 10
0.698304
 20
94.557480
 30
0.0
 10
0.873070
 20
94.715569
 30
0.0
 10
1.061175
 20
94.854656
 30
0.0
 10
1.261058
 20
94.974096
 30
0.0
 10
1.471159
 20
95.073245
 30
0.0
 10
1.689915
 20
95.151457
 30
0.0
 10
1.915766
 20
95.208088
 30
0.0
 10
2.147152
 20
95.242494
 30
0.0
 10
2.382510
 20
95.254029
 30
0.0
 10
340.519179
 20
95.254029
 30
0.0
 10
340.519179
 20
95.254029
 30
0.0
 10
340.754455
 20
95.242385
 30
0.0
 10
340.985749
 20
95.207884
 30
0.0
 10
341.211502
 20
95.151170
 30
0.0
 10
341.430152
 20
95.072890
 30
0.0
 10
341.640140
 20
94.973690
 30
0.0
 10
341.839906
 20
94.854214
 30
0.0
 10
342.027889
 20
94.715110
 30
0.0
 10
342.202531
 20
94.557022
 30
0.0
 10
342.202531
 20
94.557022
 30
0.0
 10
342.360709
 20
94.382462
 30
0.0
 10
342.499912
 20
94.194550
 30
0.0
 10
342.619493
 20
93.994847
 30
0.0
 10
342.718805
 20
93.784911
 30
0.0
 10
342.797202
 20
93.566304
 30
0.0
 10
342.854036
 20
93.340585
 30
0.0
 10
342.888661
 20
93.109314
 30
0.0
 10
342.900431
 20
92.874052
 30
0.0
 10
342.900431
 20
2.386405
 30
0.0
 10
342.900431
 20
2.386405
 30
0.0
 10
342.888778
 20
2.151047
 30
0.0
 10
342.854253
 20
1.919675
 30
0.0
 10
342.797502
 20
1.693851
 30
0.0
 10
342.719170
 20
1.475137
 30
0.0
 10
342.619906
 20
1.265093
 30
0.0
 10
342.500355
 20
1.065284
 30
0.0
 10
342.361164
 20
0.877269
 30
0.0
 10
342.202981
 20
0.702611
 30
0.0
 10
342.202981
 20
0.702611
 30
0.0
 10
342.028318
 20
0.544423
 30
0.0
 10
341.840301
 20
0.405229
 30
0.0
 10
341.640489
 20
0.285677
 30
0.0
 10
341.430446
 20
0.186412
 30
0.0
 10
341.211731
 20
0.108081
 30
0.0
 10
340.985908
 20
0.051330
 30
0.0
 10
340.754537
 20
0.016805
 30
0.0
 10
340.519179
 20
0.005154
 30
0.0
 10
340.519179
 20
0.000000
 30
0.0
 10
2.382510
 20
0.000000
 30
0.0
 10
2.382510
 20
0.005154
 30
0.0
 10
2.382510
 20
0.005154
 30
0.0
 10
2.147062
 20
0.016713
 30
0.0
 10
1.915592
 20
0.051150
 30
0.0
 10
1.689665
 20
0.107821
 30
0.0
 10
1.470842
 20
0.186083
 30
0.0
 10
1.260688
 20
0.285291
 30
0.0
 10
1.060767
 20
0.404801
 30
0.0
 10
0.872642
 20
0.543970
 30
0.0
 10
0.697877
 20
0.702153
 30
0.0
 10
0.697877
 20
0.702153
 30
0.0
 10
0.539598
 20
0.876838
 30
0.0
 10
0.400323
 20
1.064891
 30
0.0
 10
0.280699
 20
1.264750
 30
0.0
 10
0.181374
 20
1.474852
 30
0.0
 10
0.102994
 20
1.693632
 30
0.0
 10
0.046206
 20
1.919528
 30
0.0
 10
0.011659
 20
2.150976
 30
0.0
 10
0.000000
 20
2.386413
 30
0.0
  0
SPLINE
  5
109
100
AcDbEntity
  8
0
 62
7
100
AcDbSpline
 70
8
 71
3
 72
8
 73
4
 74
0
 40
0
 40
0
 40
0
 40
0
 40
1
 40
1
 40
1
 40
1
 10
245.400431
 20
4.000000
 30
0.0
 10
245.533039
 20
4.000000
 30
0.0
 10
245.660216
 20
4.052678
 30
0.0
 10
245.753984
 20
4.146447
 30
0.0
  0
SPLINE
  5
10a
100
AcDbEntity
  8
0
 62
7
100
AcDbSpline
 70
8
 71
3
 72
8
 73
4
 74
0
 40
0
 40
0
 40
0
 40
0
 40
1
 40
1
 40
1
 40
1
 10
245.753984
 20
4.146447
 30
0.0
 10
245.847753
 20
4.240215
 30
0.0
 10
245.900431
 20
4.367392
 30
0.0
 10
245.900431
 20
4.500000
 30
0.0
  0
LWPOLYLINE
  5
10b
100
AcDbEntity
  8
0
 62
7
100
AcDbPolyline
 90
2
 70
0
 10
237.400431
 20
4.000000
 30
0.0
 10
245.400431
 20
4.000000
 30
0.0
  0
SPLINE
  5
10c
100
AcDbEntity
  8
0
 62
7
100
AcDbSpline
 70
8
 71
3
 72
8
 73
4
 74
0
 40
0
 40
0
 40
0
 40
0
 40
1
 40
1
 40
1
 40
1
 10
303.677881
 20
76.203983
 30
0.0
 10
303.677881
 20
75.802940
 30
0.0
 10
303.891835
 20
75.432361
 30
0.0
 10
304.239148
 20
75.231840
 30
0.0
  0
SPLINE
  5
10d
100
AcDbEntity
  8
0
 62
7
100
AcDbSpline
 70
8
 71
3
 72
8
 73
4
 74
0
 40
0
 40
0
 40
0
 40
0
 40
1
 40
1
 40
1
 40
1
 10
304.239148
 20
75.231840
 30
0.0
 10
304.586461
 20
75.031319
 30
0.0
 10
305.014369
 20
75.031319
 30
0.0
 10
305.361682
 20
75.231840
 30
0.0
  0
SPLINE
  5
10e
100
AcDbEntity
  8
0
 62
7
100
AcDbSpline
 70
8
 71
3
 72
8
 73
4
 74
0
 40
0
 40
0
 40
0
 40
0
 40
1
 40
1
 40
1
 40
1
 10
305.361682
 20
75.231840
 30
0.0
 10
305.708995
 20
75.432361
 30
0.0
 10
305.922949
 20
75.802940
 30
0.0
 10
305.922949
 20
76.203983
 30
0.0
  0
SPLINE
  5
10f
100
AcDbEntity
  8
0
 62
7
100
AcDbSpline
 70
8
 71
3
 72
8
 73
4
 74
0
 40
0
 40
0
 40
0
 40
0
 40
1
 40
1
 40
1
 40
1
 10
305.922949
 20
76.203983
 30
0.0
 10
305.922949
 20
76.605026
 30
0.0
 10
305.708995
 20
76.975605
 30
0.0
 10
305.361682
 20
77.176126
 30
0.0
  0
SPLINE
  5
110
100
AcDbEntity
  8
0
 62
7
100
AcDbSpline
 70
8
 71
3
 72
8
 73
4
 74
0
 40
0
 40
0
 40
0
 40
0
 40
1
 40
1
 40
1
 40
1
 10
305.361682
 20
77.176126
 30
0.0
 10
305.014369
 20
77.376647
 30
0.0
 10
304.586461
 20
77.376647
 30
0.0
 10
304.239148
 20
77.176126
 30
0.0
  0
SPLINE
  5
111
100
AcDbEntity
  8
0
 62
7
100
AcDbSpline
 70
8
 71
3
 72
8
 73
4
 74
0
 40
0
 40
0
 40
0
 40
0
 40
1
 40
1
 40
1
 40
1
 10
304.239148
 20
77.176126
 30
0.0
 10
303.891835
 20
76.975605
 30
0.0
 10
303.677881
 20
76.605026
 30
0.0
 10
303.677881
 20
76.203983
 30
0.0
  0
LWPOLYLINE
  5
112
100
AcDbEntity
  8
0
 62
7
100
AcDbPolyline
 90
3
 70
0
 10
245.900431
 20
4.500000
 30
0.0
 10
245.900431
 20
10.500000
 30
0.0
 10
245.900431
 20
10.500000
 30
0.0
  0
SPLINE
  5
113
100
AcDbEntity
  8
0
 62
7
100
AcDbSpline
 70
8
 71
3
 72
8
 73
4
 74
0
 40
0
 40
0
 40
0
 40
0
 40
1
 40
1
 40
1
 40
1
 10
189.377765
 20
76.203983
 30
0.0
 10
189.377765
 20
75.802940
 30
0.0
 10
189.591719
 20
75.432361
 30
0.0
 10
189.939032
 20
75.231840
 30
0.0
  0
SPLINE
  5
114
100
AcDbEntity
  8
0
 62
7
100
AcDbSpline
 70
8
 71
3
 72
8
 73
4
 74
0
 40
0
 40
0
 40
0
 40
0
 40
1
 40
1
 40
1
 40
1
 10
189.939032
 20
75.231840
 30
0.0
 10
190.286345
 20
75.031319
 30
0.0
 10
190.714253
 20
75.031319
 30
0.0
 10
191.061566
 20
75.231840
 30
0.0
  0
SPLINE
  5
115
100
AcDbEntity
  8
0
 62
7
100
AcDbSpline
 70
8
 71
3
 72
8
 73
4
 74
0
 40
0
 40
0
 40
0
 40
0
 40
1
 40
1
 40
1
 40
1
 10
191.061566
 20
75.231840
 30
0.0
 10
191.408879
 20
75.432361
 30
0.0
 10
191.622833
 20
75.802940
 30
0.0
 10
191.622833
 20
76.203983
 30
0.0
  0
SPLINE
  5
116
100
AcDbEntity
  8
0
 62
7
100
AcDbSpline
 70
8
 71
3
 72
8
 73
4
 74
0
 40
0
 40
0
 40
0
 40
0
 40
1
 40
1
 40
1
 40
1
 10
191.622833
 20
76.203983
 30
0.0
 10
191.622833
 20
76.605026
 30
0.0
 10
191.408879
 20
76.975605
 30
0.0
 10
191.061566
 20
77.176126
 30
0.0
  0
SPLINE
  5
117
100
AcDbEntity
  8
0
 62
7
100
AcDbSpline
 70
8
 71
3
 72
8
 73
4
 74
0
 40
0
 40
0
 40
0
 40
0
 40
1
 40
1
 40
1
 40
1
 10
191.061566
 20
77.176126
 30
0.0
 10
190.714253
 20
77.376647
 30
0.0
 10
190.286345
 20
77.376647
 30
0.0
 10
189.939032
 20
77.176126
 30
0.0
  0
SPLINE
  5
118
100
AcDbEntity
  8
0
 62
7
100
AcDbSpline
 70
8
 71
3
 72
8
 73
4
 74
0
 40
0
 40
0
 40
0
 40
0
 40
1
 40
1
 40
1
 40
1
 10
189.939032
 20
77.176126
 30
0.0
 10
189.591719
 20
76.975605
 30
0.0
 10
189.377765
 20
76.605026
 30
0.0
 10
189.377765
 20
76.203983
 30
0.0
  0
LWPOLYLINE
  5
119
100
AcDbEntity
  8
0
 62
7
100
AcDbPolyline
 90
1
 70
1
 10
303.677881
 20
76.203983
 30
0.0
  0
SPLINE
  5
11a
100
AcDbEntity
  8
0
 62
7
100
AcDbSpline
 70
8
 71
3
 72
8
 73
4
 74
0
 40
0
 40
0
 40
0
 40
0
 40
1
 40
1
 40
1
 40
1
 10
113.177723
 20
57.154009
 30
0.0
 10
113.177723
 20
56.752966
 30
0.0
 10
113.391677
 20
56.382387
 30
0.0
 10
113.738990
 20
56.181866
 30
0.0
  0
SPLINE
  5
11b
100
AcDbEntity
  8
0
 62
7
100
AcDbSpline
 70
8
 71
3
 72
8
 73
4
 74
0
 40
0
 40
0
 40
0
 40
0
 40
1
 40
1
 40
1
 40
1
 10
113.738990
 20
56.181866
 30
0.0
 10
114.086303
 20
55.981345
 30
0.0
 10
114.514211
 20
55.981345
 30
0.0
 10
114.861524
 20
56.181866
 30
0.0
  0
SPLINE
  5
11c
100
AcDbEntity
  8
0
 62
7
100
AcDbSpline
 70
8
 71
3
 72
8
 73
4
 74
0
 40
0
 40
0
 40
0
 40
0
 40
1
 40
1
 40
1
 40
1
 10
114.861524
 20
56.181866
 30
0.0
 10
115.208837
 20
56.382387
 30
0.0
 10
115.422791
 20
56.752966
 30
0.0
 10
115.422791
 20
57.154009
 30
0.0
  0
SPLINE
  5
11d
100
AcDbEntity
  8
0
 62
7
100
AcDbSpline
 70
8
 71
3
 72
8
 73
4
 74
0
 40
0
 40
0
 40
0
 40
0
 40
1
 40
1
 40
1
 40
1
 10
115.422791
 20
57.154009
 30
0.0
 10
115.422791
 20
57.555052
 30
0.0
 10
115.208837
 20
57.925631
 30
0.0
 10
114.861524
 20
58.126152
 30
0.0
  0
SPLINE
  5
11e
100
AcDbEntity
  8
0
 62
7
100
AcDbSpline
 70
8
 71
3
 72
8
 73
4
 74
0
 40
0
 40
0
 40
0
 40
0
 40
1
 40
1
 40
1
 40
1
 10
114.861524
 20
58.126152
 30
0.0
 10
114.514211
 20
58.326673
 30
0.0
 10
114.086303
 20
58.326673
 30
0.0
 10
113.738990
 20
58.126152
 30
0.0
  0
SPLINE
  5
11f
100
AcDbEntity
  8
0
 62
7
100
AcDbSpline
 70
8
 71
3
 72
8
 73
4
 74
0
 40
0
 40
0
 40
0
 40
0
 40
1
 40
1
 40
1
 40
1
 10
113.738990
 20
58.126152
 30
0.0
 10
113.391677
 20
57.925631
 30
0.0
 10
113.177723
 20
57.555052
 30
0.0
 10
113.177723
 20
57.154009
 30
0.0
  0
LWPOLYLINE
  5
120
100
AcDbEntity
  8
0
 62
7
100
AcDbPolyline
 90
1
 70
1
 10
189.377765
 20
76.203983
 30
0.0
  0
SPLINE
  5
121
100
AcDbEntity
  8
0
 62
7
100
AcDbSpline
 70
8
 71
3
 72
8
 73
4
 74
0
 40
0
 40
0
 40
0
 40
0
 40
1
 40
1
 40
1
 40
1
 10
322.727904
 20
38.103975
 30
0.0
 10
322.727904
 20
37.702932
 30
0.0
 10
322.941858
 20
37.332353
 30
0.0
 10
323.289171
 20
37.131832
 30
0.0
  0
SPLINE
  5
122
100
AcDbEntity
  8
0
 62
7
100
AcDbSpline
 70
8
 71
3
 72
8
 73
4
 74
0
 40
0
 40
0
 40
0
 40
0
 40
1
 40
1
 40
1
 40
1
 10
323.289171
 20
37.131832
 30
0.0
 10
323.636484
 20
36.931311
 30
0.0
 10
324.064392
 20
36.931311
 30
0.0
 10
324.411705
 20
37.131832
 30
0.0
  0
SPLINE
  5
123
100
AcDbEntity
  8
0
 62
7
100
AcDbSpline
 70
8
 71
3
 72
8
 73
4
 74
0
 40
0
 40
0
 40
0
 40
0
 40
1
 40
1
 40
1
 40
1
 10
324.411705
 20
37.131832
 30
0.0
 10
324.759018
 20
37.332353
 30
0.0
 10
324.972972
 20
37.702932
 30
0.0
 10
324.972972
 20
38.103975
 30
0.0
  0
SPLINE
  5
124
100
AcDbEntity
  8
0
 62
7
100
AcDbSpline
 70
8
 71
3
 72
8
 73
4
 74
0
 40
0
 40
0
 40
0
 40
0
 40
1
 40
1
 40
1
 40
1
 10
324.972972
 20
38.103975
 30
0.0
 10
324.972972
 20
38.505018
 30
0.0
 10
324.759018
 20
38.875597
 30
0.0
 10
324.411705
 20
39.076118
 30
0.0
  0
SPLINE
  5
125
100
AcDbEntity
  8
0
 62
7
100
AcDbSpline
 70
8
 71
3
 72
8
 73
4
 74
0
 40
0
 40
0
 40
0
 40
0
 40
1
 40
1
 40
1
 40
1
 10
324.411705
 20
39.076118
 30
0.0
 10
324.064392
 20
39.276640
 30
0.0
 10
323.636484
 20
39.276640
 30
0.0
 10
323.289171
 20
39.076118
 30
0.0
  0
SPLINE
  5
126
100
AcDbEntity
  8
0
 62
7
100
AcDbSpline
 70
8
 71
3
 72
8
 73
4
 74
0
 40
0
 40
0
 40
0
 40
0
 40
1
 40
1
 40
1
 40
1
 10
323.289171
 20
39.076118
 30
0.0
 10
322.941858
 20
38.875597
 30
0.0
 10
322.727904
 20
38.505018
 30
0.0
 10
322.727904
 20
38.103975
 30
0.0
  0
LWPOLYLINE
  5
127
100
AcDbEntity
  8
0
 62
7
100
AcDbPolyline
 90
1
 70
1
 10
113.177723
 20
57.154009
 30
0.0
  0
SPLINE
  5
128
100
AcDbEntity
  8
0
 62
7
100
AcDbSpline
 70
8
 71
3
 72
8
 73
4
 74
0
 40
0
 40
0
 40
0
 40
0
 40
1
 40
1
 40
1
 40
1
 10
36.977578
 20
76.203983
 30
0.0
 10
36.977578
 20
75.802940
 30
0.0
 10
37.191532
 20
75.432361
 30
0.0
 10
37.538845
 20
75.231840
 30
0.0
  0
SPLINE
  5
129
100
AcDbEntity
  8
0
 62
7
100
AcDbSpline
 70
8
 71
3
 72
8
 73
4
 74
0
 40
0
 40
0
 40
0
 40
0
 40
1
 40
1
 40
1
 40
1
 10
37.538845
 20
75.231840
 30
0.0
 10
37.886158
 20
75.031319
 30
0.0
 10
38.314066
 20
75.031319
 30
0.0
 10
38.661379
 20
75.231840
 30
0.0
  0
SPLINE
  5
12a
100
AcDbEntity
  8
0
 62
7
100
AcDbSpline
 70
8
 71
3
 72
8
 73
4
 74
0
 40
0
 40
0
 40
0
 40
0
 40
1
 40
1
 40
1
 40
1
 10
38.661379
 20
75.231840
 30
0.0
 10
39.008692
 20
75.432361
 30
0.0
 10
39.222646
 20
75.802940
 30
0.0
 10
39.222646
 20
76.203983
 30
0.0
  0
SPLINE
  5
12b
100
AcDbEntity
  8
0
 62
7
100
AcDbSpline
 70
8
 71
3
 72
8
 73
4
 74
0
 40
0
 40
0
 40
0
 40
0
 40
1
 40
1
 40
1
 40
1
 10
39.222646
 20
76.203983
 30
0.0
 10
39.222646
 20
76.605026
 30
0.0
 10
39.008692
 20
76.975605
 30
0.0
 10
38.661379
 20
77.176126
 30
0.0
  0
SPLINE
  5
12c
100
AcDbEntity
  8
0
 62
7
100
AcDbSpline
 70
8
 71
3
 72
8
 73
4
 74
0
 40
0
 40
0
 40
0
 40
0
 40
1
 40
1
 40
1
 40
1
 10
38.661379
 20
77.176126
 30
0.0
 10
38.314066
 20
77.376647
 30
0.0
 10
37.886158
 20
77.376647
 30
0.0
 10
37.538845
 20
77.176126
 30
0.0
  0
SPLINE
  5
12d
100
AcDbEntity
  8
0
 62
7
100
AcDbSpline
 70
8
 71
3
 72
8
 73
4
 74
0
 40
0
 40
0
 40
0
 40
0
 40
1
 40
1
 40
1
 40
1
 10
37.538845
 20
77.176126
 30
0.0
 10
37.191532
 20
76.975605
 30
0.0
 10
36.977578
 20
76.605026
 30
0.0
 10
36.977578
 20
76.203983
 30
0.0
  0
LWPOLYLINE
  5
12e
100
AcDbEntity
  8
0
 62
7
100
AcDbPolyline
 90
1
 70
1
 10
322.727904
 20
38.103975
 30
0.0
  0
SPLINE
  5
12f
100
AcDbEntity
  8
0
 62
7
100
AcDbSpline
 70
8
 71
3
 72
8
 73
4
 74
0
 40
0
 40
0
 40
0
 40
0
 40
1
 40
1
 40
1
 40
1
 10
189.377765
 20
19.055226
 30
0.0
 10
189.377765
 20
18.654183
 30
0.0
 10
189.591719
 20
18.283604
 30
0.0
 10
189.939032
 20
18.083083
 30
0.0
  0
SPLINE
  5
130
100
AcDbEntity
  8
0
 62
7
100
AcDbSpline
 70
8
 71
3
 72
8
 73
4
 74
0
 40
0
 40
0
 40
0
 40
0
 40
1
 40
1
 40
1
 40
1
 10
189.939032
 20
18.083083
 30
0.0
 10
190.286345
 20
17.882562
 30
0.0
 10
190.714253
 20
17.882562
 30
0.0
 10
191.061566
 20
18.083083
 30
0.0
  0
SPLINE
  5
131
100
AcDbEntity
  8
0
 62
7
100
AcDbSpline
 70
8
 71
3
 72
8
 73
4
 74
0
 40
0
 40
0
 40
0
 40
0
 40
1
 40
1
 40
1
 40
1
 10
191.061566
 20
18.083083
 30
0.0
 10
191.408879
 20
18.283604
 30
0.0
 10
191.622833
 20
18.654183
 30
0.0
 10
191.622833
 20
19.055226
 30
0.0
  0
SPLINE
  5
132
100
AcDbEntity
  8
0
 62
7
100
AcDbSpline
 70
8
 71
3
 72
8
 73
4
 74
0
 40
0
 40
0
 40
0
 40
0
 40
1
 40
1
 40
1
 40
1
 10
191.622833
 20
19.055226
 30
0.0
 10
191.622833
 20
19.456269
 30
0.0
 10
191.408879
 20
19.826848
 30
0.0
 10
191.061566
 20
20.027369
 30
0.0
  0
SPLINE
  5
133
100
AcDbEntity
  8
0
 62
7
100
AcDbSpline
 70
8
 71
3
 72
8
 73
4
 74
0
 40
0
 40
0
 40
0
 40
0
 40
1
 40
1
 40
1
 40
1
 10
191.061566
 20
20.027369
 30
0.0
 10
190.714253
 20
20.227890
 30
0.0
 10
190.286345
 20
20.227890
 30
0.0
 10
189.939032
 20
20.027369
 30
0.0
  0
SPLINE
  5
134
100
AcDbEntity
  8
0
 62
7
100
AcDbSpline
 70
8
 71
3
 72
8
 73
4
 74
0
 40
0
 40
0
 40
0
 40
0
 40
1
 40
1
 40
1
 40
1
 10
189.939032
 20
20.027369
 30
0.0
 10
189.591719
 20
19.826848
 30
0.0
 10
189.377765
 20
19.456269
 30
0.0
 10
189.377765
 20
19.055226
 30
0.0
  0
LWPOLYLINE
  5
135
100
AcDbEntity
  8
0
 62
7
100
AcDbPolyline
 90
1
 70
1
 10
36.977578
 20
76.203983
 30
0.0
  0
SPLINE
  5
136
100
AcDbEntity
  8
0
 62
7
100
AcDbSpline
 70
8
 71
3
 72
8
 73
4
 74
0
 40
0
 40
0
 40
0
 40
0
 40
1
 40
1
 40
1
 40
1
 10
36.977578
 20
19.055226
 30
0.0
 10
36.977578
 20
18.654183
 30
0.0
 10
37.191532
 20
18.283604
 30
0.0
 10
37.538845
 20
18.083083
 30
0.0
  0
SPLINE
  5
137
100
AcDbEntity
  8
0
 62
7
100
AcDbSpline
 70
8
 71
3
 72
8
 73
4
 74
0
 40
0
 40
0
 40
0
 40
0
 40
1
 40
1
 40
1
 40
1
 10
37.538845
 20
18.083083
 30
0.0
 10
37.886158
 20
17.882562
 30
0.0
 10
38.314066
 20
17.882562
 30
0.0
 10
38.661379
 20
18.083083
 30
0.0
  0
SPLINE
  5
138
100
AcDbEntity
  8
0
 62
7
100
AcDbSpline
 70
8
 71
3
 72
8
 73
4
 74
0
 40
0
 40
0
 40
0
 40
0
 40
1
 40
1
 40
1
 40
1
 10
38.661379
 20
18.083083
 30
0.0
 10
39.008692
 20
18.283604
 30
0.0
 10
39.222646
 20
18.654183
 30
0.0
 10
39.222646
 20
19.055226
 30
0.0
  0
SPLINE
  5
139
100
AcDbEntity
  8
0
 62
7
100
AcDbSpline
 70
8
 71
3
 72
8
 73
4
 74
0
 40
0
 40
0
 40
0
 40
0
 40
1
 40
1
 40
1
 40
1
 10
39.222646
 20
19.055226
 30
0.0
 10
39.222646
 20
19.456269
 30
0.0
 10
39.008692
 20
19.826848
 30
0.0
 10
38.661379
 20
20.027369
 30
0.0
  0
SPLINE
  5
13a
100
AcDbEntity
  8
0
 62
7
100
AcDbSpline
 70
8
 71
3
 72
8
 73
4
 74
0
 40
0
 40
0
 40
0
 40
0
 40
1
 40
1
 40
1
 40
1
 10
38.661379
 20
20.027369
 30
0.0
 10
38.314066
 20
20.227890
 30
0.0
 10
37.886158
 20
20.227890
 30
0.0
 10
37.538845
 20
20.027369
 30
0.0
  0
SPLINE
  5
13b
100
AcDbEntity
  8
0
 62
7
100
AcDbSpline
 70
8
 71
3
 72
8
 73
4
 74
0
 40
0
 40
0
 40
0
 40
0
 40
1
 40
1
 40
1
 40
1
 10
37.538845
 20
20.027369
 30
0.0
 10
37.191532
 20
19.826848
 30
0.0
 10
36.977578
 20
19.456269
 30
0.0
 10
36.977578
 20
19.055226
 30
0.0
  0
LWPOLYLINE
  5
13c
100
AcDbEntity
  8
0
 62
7
100
AcDbPolyline
 90
1
 70
1
 10
189.377765
 20
19.055226
 30
0.0
  0
LWPOLYLINE
  5
13d
100
AcDbEntity
  8
0
 62
7
100
AcDbPolyline
 90
1
 70
1
 10
36.977578
 20
19.055226
 30
0.0
  0
ENDSEC
  0
SECTION
  2
OBJECTS
  0
DICTIONARY
  5
C
330
0
100
AcDbDictionary
  3
ACAD_GROUP
350
D
  3
ACAD_MLINESTYLE
350
17
  0
DICTIONARY
  5
D
330
C
100
AcDbDictionary
  0
DICTIONARY
  5
1A
330
C
100
AcDbDictionary
  0
DICTIONARY
  5
17
330
C
100
AcDbDictionary
  3
STANDARD
350
18
  0
DICTIONARY
  5
19
330
C
100
AcDbDictionary
  0
ENDSEC
  0
EOF
