  0
SECTION
  2
HEADER
  9
$ACADVER
  1
AC1014
  9
$HANDSEED
  5
FFFF
  9
$MEASUREMENT
 70
     1
  0
ENDSEC
  0
SECTION
  2
TABLES
  0
TABLE
  2
VPORT
  5
8
330
0
100
AcDbSymbolTable
 70
     4
  0
VPORT
  5
2E
330
8
100
AcDbSymbolTableRecord
100
AcDbViewportTableRecord
  2
*ACTIVE
 70
     0
 10
0.0
 20
0.0
 11
1.0
 21
1.0
 12
210.0
 22
148.5
 13
0.0
 23
0.0
 14
10.0
 24
10.0
 15
10.0
 25
10.0
 16
0.0
 26
0.0
 36
1.0
 17
0.0
 27
0.0
 37
0.0
 40
341.0
 41
1.24
 42
50.0
 43
0.0
 44
0.0
 50
0.0
 51
0.0
 71
     0
 72
   100
 73
     1
 74
     3
 75
     0
 76
     0
 77
     0
 78
     0
  0
ENDTAB
  0
TABLE
  2
LTYPE
  5
5
330
0
100
AcDbSymbolTable
 70
     1
  0
LTYPE
  5
14
330
5
100
AcDbSymbolTableRecord
100
AcDbLinetypeTableRecord
  2
BYBLOCK
 70
     0
  3

 72
    65
 73
     0
 40
0.0
  0
LTYPE
  5
15
330
5
100
AcDbSymbolTableRecord
100
AcDbLinetypeTableRecord
  2
BYLAYER
 70
     0
  3

 72
    65
 73
     0
 40
0.0
  0
LTYPE
  5
16
330
5
100
AcDbSymbolTableRecord
100
AcDbLinetypeTableRecord
  2
CONTINUOUS
 70
     0
  3
Solid line
 72
    65
 73
     0
 40
0.0
  0
ENDTAB
  0
TABLE
  2
LAYER
  5
2
100
AcDbSymbolTable
 70
1
  0
LAYER
  5
50
100
AcDbSymbolTableRecord
100
AcDbLayerTableRecord
  2
0
 70
0
  6
CONTINUOUS
  0
ENDTAB
  0
TABLE
  2
STYLE
  5
3
330
0
100
AcDbSymbolTable
 70
     1
  0
STYLE
  5
11
330
3
100
AcDbSymbolTableRecord
100
AcDbTextStyleTableRecord
  2
STANDARD
 70
     0
 40
0.0
 41
1.0
 50
0.0
 71
     0
 42
2.5
  3
txt
  4

  0
ENDTAB
  0
TABLE
  2
VIEW
  5
6
330
0
100
AcDbSymbolTable
 70
     0
  0
ENDTAB
  0
TABLE
  2
UCS
  5
7
330
0
100
AcDbSymbolTable
 70
     0
  0
ENDTAB
  0
TABLE
  2
APPID
  5
9
330
0
100
AcDbSymbolTable
 70
     2
  0
APPID
  5
12
330
9
100
AcDbSymbolTableRecord
100
AcDbRegAppTableRecord
  2
ACAD
 70
     0
  0
ENDTAB
  0
TABLE
  2
DIMSTYLE
  5
A
330
0
100
AcDbSymbolTable
 70
     1
  0
DIMSTYLE
105
27
330
A
100
AcDbSymbolTableRecord
100
AcDbDimStyleTableRecord
  2
ISO-25
 70
     0
  3

  4

  5

  6

  7

 40
1.0
 41
2.5
 42
0.625
 43
3.75
 44
1.25
 45
0.0
 46
0.0
 47
0.0
 48
0.0
140
2.5
141
2.5
142
0.0
143
0.03937007874016
144
1.0
145
0.0
146
1.0
147
0.625
 71
     0
 72
     0
 73
     0
 74
     0
 75
     0
 76
     0
 77
     1
 78
     8
170
     0
171
     3
172
     1
173
     0
174
     0
175
     0
176
     0
177
     0
178
     0
270
     2
271
     2
272
     2
273
     2
274
     3
340
11
275
     0
280
     0
281
     0
282
     0
283
     0
284
     8
285
     0
286
     0
287
     3
288
     0
  0
ENDTAB
  0
TABLE
  2
BLOCK_RECORD
  5
1
330
0
100
AcDbSymbolTable
 70
     1
  0
BLOCK_RECORD
  5
1F
330
1
100
AcDbSymbolTableRecord
100
AcDbBlockTableRecord
  2
*MODEL_SPACE
  0
BLOCK_RECORD
  5
1B
330
1
100
AcDbSymbolTableRecord
100
AcDbBlockTableRecord
  2
*PAPER_SPACE
  0
ENDTAB
  0
ENDSEC
  0
SECTION
  2
BLOCKS
  0
BLOCK
  5
20
330
1F
100
AcDbEntity
  8
0
100
AcDbBlockBegin
  2
*MODEL_SPACE
 70
     0
 10
0.0
 20
0.0
 30
0.0
  3
*MODEL_SPACE
  1

  0
ENDBLK
  5
21
330
1F
100
AcDbEntity
  8
0
100
AcDbBlockEnd
  0
BLOCK
  5
1C
330
1B
100
AcDbEntity
 67
     1
  8
0
100
AcDbBlockBegin
  2
*PAPER_SPACE
  1

  0
ENDBLK
  5
1D
330
1B
100
AcDbEntity
 67
     1
  8
0
100
AcDbBlockEnd
  0
ENDSEC
  0
SECTION
  2
ENTITIES
  0
SPLINE
  5
100
100
AcDbEntity
  8
0
 62
7
100
AcDbSpline
 70
8
 71
3
 72
8
 73
4
 74
0
 40
0
 40
0
 40
0
 40
0
 40
1
 40
1
 40
1
 40
1
 10
243.950431
 20
28.300000
 30
0.0
 10
243.950431
 20
28.032051
 30
0.0
 10
244.093380
 20
27.784455
 30
0.0
 10
244.325431
 20
27.650481
 30
0.0
  0
SPLINE
  5
101
100
AcDbEntity
  8
0
 62
7
100
AcDbSpline
 70
8
 71
3
 72
8
 73
4
 74
0
 40
0
 40
0
 40
0
 40
0
 40
1
 40
1
 40
1
 40
1
 10
244.325431
 20
27.650481
 30
0.0
 10
244.557482
 20
27.516506
 30
0.0
 10
244.843380
 20
27.516506
 30
0.0
 10
245.075431
 20
27.650481
 30
0.0
  0
SPLINE
  5
102
100
AcDbEntity
  8
0
 62
7
100
AcDbSpline
 70
8
 71
3
 72
8
 73
4
 74
0
 40
0
 40
0
 40
0
 40
0
 40
1
 40
1
 40
1
 40
1
 10
245.075431
 20
27.650481
 30
0.0
 10
245.307482
 20
27.784455
 30
0.0
 10
245.450431
 20
28.032051
 30
0.0
 10
245.450431
 20
28.300000
 30
0.0
  0
SPLINE
  5
103
100
AcDbEntity
  8
0
 62
7
100
AcDbSpline
 70
8
 71
3
 72
8
 73
4
 74
0
 40
0
 40
0
 40
0
 40
0
 40
1
 40
1
 40
1
 40
1
 10
245.450431
 20
28.300000
 30
0.0
 10
245.450431
 20
28.567949
 30
0.0
 10
245.307482
 20
28.815545
 30
0.0
 10
245.075431
 20
28.949519
 30
0.0
  0
SPLINE
  5
104
100
AcDbEntity
  8
0
 62
7
100
AcDbSpline
 70
8
 71
3
 72
8
 73
4
 74
0
 40
0
 40
0
 40
0
 40
0
 40
1
 40
1
 40
1
 40
1
 10
245.075431
 20
28.949519
 30
0.0
 10
244.843380
 20
29.083494
 30
0.0
 10
244.557482
 20
29.083494
 30
0.0
 10
244.325431
 20
28.949519
 30
0.0
  0
SPLINE
  5
105
100
AcDbEntity
  8
0
 62
7
100
AcDbSpline
 70
8
 71
3
 72
8
 73
4
 74
0
 40
0
 40
0
 40
0
 40
0
 40
1
 40
1
 40
1
 40
1
 10
244.325431
 20
28.949519
 30
0.0
 10
244.093380
 20
28.815545
 30
0.0
 10
243.950431
 20
28.567949
 30
0.0
 10
243.950431
 20
28.300000
 30
0.0
  0
LWPOLYLINE
  5
106
100
AcDbEntity
  8
0
 62
7
100
AcDbPolyline
 90
79
 70
1
 10
0.697877
 20
0.702153
 30
0.0
 10
0.697877
 20
0.702153
 30
0.0
 10
0.872642
 20
0.543970
 30
0.0
 10
1.060767
 20
0.404801
 30
0.0
 10
1.260688
 20
0.285291
 30
0.0
 10
1.470842
 20
0.186083
 30
0.0
 10
1.689665
 20
0.107821
 30
0.0
 10
1.915592
 20
0.051150
 30
0.0
 10
2.147062
 20
0.016713
 30
0.0
 10
2.382510
 20
0.005154
 30
0.0
 10
2.382510
 20
0.000000
 30
0.0
 10
340.519179
 20
0.000000
 30
0.0
 10
340.519179
 20
0.005154
 30
0.0
 10
340.519179
 20
0.005154
 30
0.0
 10
340.754537
 20
0.016805
 30
0.0
 10
340.985908
 20
0.051330
 30
0.0
 10
341.211731
 20
0.108081
 30
0.0
 10
341.430446
 20
0.186412
 30
0.0
 10
341.640489
 20
0.285677
 30
0.0
 10
341.840301
 20
0.405229
 30
0.0
 10
342.028318
 20
0.544423
 30
0.0
 10
342.202981
 20
0.702611
 30
0.0
 10
342.202981
 20
0.702611
 30
0.0
 10
342.361164
 20
0.877269
 30
0.0
 10
342.500355
 20
1.065284
 30
0.0
 10
342.619906
 20
1.265093
 30
0.0
 10
342.719170
 20
1.475137
 30
0.0
 10
342.797502
 20
1.693851
 30
0.0
 10
342.854253
 20
1.919675
 30
0.0
 10
342.888778
 20
2.151047
 30
0.0
 10
342.900431
 20
2.386405
 30
0.0
 10
342.900431
 20
92.874052
 30
0.0
 10
342.900431
 20
92.874052
 30
0.0
 10
342.888661
 20
93.109314
 30
0.0
 10
342.854036
 20
93.340585
 30
0.0
 10
342.797202
 20
93.566304
 30
0.0
 10
342.718805
 20
93.784911
 30
0.0
 10
342.619493
 20
93.994847
 30
0.0
 10
342.499912
 20
94.194550
 30
0.0
 10
342.360709
 20
94.382462
 30
0.0
 10
342.202531
 20
94.557022
 30
0.0
 10
342.202531
 20
94.557022
 30
0.0
 10
342.027889
 20
94.715110
 30
0.0
 10
341.839906
 20
94.854214
 30
0.0
 10
341.640140
 20
94.973690
 30
0.0
 10
341.430152
 20
95.072890
 30
0.0
 10
341.211502
 20
95.151170
 30
0.0
 10
340.985749
 20
95.207884
 30
0.0
 10
340.754455
 20
95.242385
 30
0.0
 10
340.519179
 20
95.254029
 30
0.0
 10
2.382510
 20
95.254029
 30
0.0
 10
2.382510
 20
95.254029
 30
0.0
 10
2.147152
 20
95.242494
 30
0.0
 10
1.915766
 20
95.208088
 30
0.0
 10
1.689915
 20
95.151457
 30
0.0
 10
1.471159
 20
95.073245
 30
0.0
 10
1.261058
 20
94.974096
 30
0.0
 10
1.061175
 20
94.854656
 30
0.0
 10
0.873070
 20
94.715569
 30
0.0
 10
0.698304
 20
94.557480
 30
0.0
 10
0.698304
 20
94.557480
 30
0.0
 10
0.540024
 20
94.382897
 30
0.0
 10
0.400709
 20
94.194951
 30
0.0
 10
0.281018
 20
93.995204
 30
0.0
 10
0.181610
 20
93.785214
 30
0.0
 10
0.103145
 20
93.566544
 30
0.0
 10
0.046282
 20
93.340753
 30
0.0
 10
0.011680
 20
93.109402
 30
0.0
 10
0.000000
 20
92.874052
 30
0.0
 10
0.000000
 20
2.386413
 30
0.0
 10
0.000000
 20
2.386413
 30
0.0
 10
0.011659
 20
2.150976
 30
0.0
 10
0.046206
 20
1.919528
 30
0.0
 10
0.102994
 20
1.693632
 30
0.0
 10
0.181374
 20
1.474852
 30
0.0
 10
0.280699
 20
1.264750
 30
0.0
 10
0.400323
 20
1.064891
 30
0.0
 10
0.539598
 20
0.876838
 30
0.0
 10
0.697877
 20
0.702153
 30
0.0
  0
LWPOLYLINE
  5
107
100
AcDbEntity
  8
0
 62
7
100
AcDbPolyline
 90
1
 70
1
 10
243.950431
 20
28.300000
 30
0.0
  0
SPLINE
  5
108
100
AcDbEntity
  8
0
 62
7
100
AcDbSpline
 70
8
 71
3
 72
8
 73
4
 74
0
 40
0
 40
0
 40
0
 40
0
 40
1
 40
1
 40
1
 40
1
 10
36.977578
 20
19.055226
 30
0.0
 10
36.977578
 20
18.654183
 30
0.0
 10
37.191532
 20
18.283604
 30
0.0
 10
37.538845
 20
18.083083
 30
0.0
  0
SPLINE
  5
109
100
AcDbEntity
  8
0
 62
7
100
AcDbSpline
 70
8
 71
3
 72
8
 73
4
 74
0
 40
0
 40
0
 40
0
 40
0
 40
1
 40
1
 40
1
 40
1
 10
37.538845
 20
18.083083
 30
0.0
 10
37.886158
 20
17.882562
 30
0.0
 10
38.314066
 20
17.882562
 30
0.0
 10
38.661379
 20
18.083083
 30
0.0
  0
SPLINE
  5
10a
100
AcDbEntity
  8
0
 62
7
100
AcDbSpline
 70
8
 71
3
 72
8
 73
4
 74
0
 40
0
 40
0
 40
0
 40
0
 40
1
 40
1
 40
1
 40
1
 10
38.661379
 20
18.083083
 30
0.0
 10
39.008692
 20
18.283604
 30
0.0
 10
39.222646
 20
18.654183
 30
0.0
 10
39.222646
 20
19.055226
 30
0.0
  0
SPLINE
  5
10b
100
AcDbEntity
  8
0
 62
7
100
AcDbSpline
 70
8
 71
3
 72
8
 73
4
 74
0
 40
0
 40
0
 40
0
 40
0
 40
1
 40
1
 40
1
 40
1
 10
39.222646
 20
19.055226
 30
0.0
 10
39.222646
 20
19.456269
 30
0.0
 10
39.008692
 20
19.826848
 30
0.0
 10
38.661379
 20
20.027369
 30
0.0
  0
SPLINE
  5
10c
100
AcDbEntity
  8
0
 62
7
100
AcDbSpline
 70
8
 71
3
 72
8
 73
4
 74
0
 40
0
 40
0
 40
0
 40
0
 40
1
 40
1
 40
1
 40
1
 10
38.661379
 20
20.027369
 30
0.0
 10
38.314066
 20
20.227890
 30
0.0
 10
37.886158
 20
20.227890
 30
0.0
 10
37.538845
 20
20.027369
 30
0.0
  0
SPLINE
  5
10d
100
AcDbEntity
  8
0
 62
7
100
AcDbSpline
 70
8
 71
3
 72
8
 73
4
 74
0
 40
0
 40
0
 40
0
 40
0
 40
1
 40
1
 40
1
 40
1
 10
37.538845
 20
20.027369
 30
0.0
 10
37.191532
 20
19.826848
 30
0.0
 10
36.977578
 20
19.456269
 30
0.0
 10
36.977578
 20
19.055226
 30
0.0
  0
LWPOLYLINE
  5
10e
100
AcDbEntity
  8
0
 62
7
100
AcDbPolyline
 90
434
 70
1
 10
242.624450
 20
66.908596
 30
0.0
 10
242.624450
 20
66.908596
 30
0.0
 10
242.602239
 20
66.817325
 30
0.0
 10
242.571604
 20
66.726176
 30
0.0
 10
242.494541
 20
66.551807
 30
0.0
 10
242.403718
 20
66.386219
 30
0.0
 10
242.299646
 20
66.221168
 30
0.0
 10
242.187258
 20
66.060092
 30
0.0
 10
242.071494
 20
65.906435
 30
0.0
 10
241.957291
 20
65.763645
 30
0.0
 10
241.849588
 20
65.635166
 30
0.0
 10
241.849588
 20
65.635166
 30
0.0
 10
241.629407
 20
65.369579
 30
0.0
 10
241.413204
 20
65.094298
 30
0.0
 10
241.307342
 20
64.955366
 30
0.0
 10
241.261305
 20
64.894367
 30
0.0
 10
241.221169
 20
64.841100
 30
0.0
 10
241.187342
 20
64.796385
 30
0.0
 10
241.160231
 20
64.761046
 30
0.0
 10
241.140243
 20
64.735903
 30
0.0
 10
241.127785
 20
64.721780
 30
0.0
 10
241.127785
 20
64.721780
 30
0.0
 10
241.087558
 20
64.687938
 30
0.0
 10
241.044575
 20
64.659858
 30
0.0
 10
240.952805
 20
64.609398
 30
0.0
 10
240.952805
 20
64.609398
 30
0.0
 10
240.881404
 20
64.552403
 30
0.0
 10
240.812000
 20
64.476996
 30
0.0
 10
240.737457
 20
64.382414
 30
0.0
 10
240.662184
 20
64.274877
 30
0.0
 10
240.662184
 20
64.274877
 30
0.0
 10
240.566089
 20
64.118922
 30
0.0
 10
240.480834
 20
63.953662
 30
0.0
 10
240.446626
 20
63.871843
 30
0.0
 10
240.418510
 20
63.784173
 30
0.0
 10
240.404518
 20
63.696389
 30
0.0
 10
240.407006
 20
63.652584
 30
0.0
 10
240.421035
 20
63.611653
 30
0.0
 10
240.421035
 20
63.611653
 30
0.0
 10
240.444424
 20
63.583298
 30
0.0
 10
240.474013
 20
63.560297
 30
0.0
 10
240.540838
 20
63.524523
 30
0.0
 10
240.622663
 20
63.493961
 30
0.0
 10
240.723438
 20
63.466713
 30
0.0
 10
240.842790
 20
63.443758
 30
0.0
 10
240.980646
 20
63.426069
 30
0.0
 10
241.136753
 20
63.414687
 30
0.0
 10
241.310829
 20
63.410660
 30
0.0
 10
241.310829
 20
63.410660
 30
0.0
 10
241.522116
 20
63.404177
 30
0.0
 10
241.621918
 20
63.396457
 30
0.0
 10
241.715715
 20
63.386093
 30
0.0
 10
241.890087
 20
63.355877
 30
0.0
 10
241.973982
 20
63.332022
 30
0.0
 10
242.014024
 20
63.315162
 30
0.0
 10
242.047474
 20
63.291407
 30
0.0
 10
242.047474
 20
63.291407
 30
0.0
 10
242.125748
 20
63.220983
 30
0.0
 10
242.211758
 20
63.163688
 30
0.0
 10
242.305753
 20
63.111459
 30
0.0
 10
242.403772
 20
63.063736
 30
0.0
 10
242.499780
 20
63.021513
 30
0.0
 10
242.587742
 20
62.985782
 30
0.0
 10
242.741654
 20
62.928500
 30
0.0
 10
242.904469
 20
62.873631
 30
0.0
 10
243.076656
 20
62.820767
 30
0.0
 10
243.256343
 20
62.770418
 30
0.0
 10
243.441655
 20
62.723093
 30
0.0
 10
243.821659
 20
62.639557
 30
0.0
 10
244.201681
 20
62.574239
 30
0.0
 10
244.387014
 20
62.549686
 30
0.0
 10
244.566731
 20
62.531218
 30
0.0
 10
244.738957
 20
62.519344
 30
0.0
 10
244.901820
 20
62.514574
 30
0.0
 10
244.901820
 20
62.514574
 30
0.0
 10
245.021258
 20
62.518292
 30
0.0
 10
245.145792
 20
62.530667
 30
0.0
 10
245.274316
 20
62.551218
 30
0.0
 10
245.405719
 20
62.579465
 30
0.0
 10
245.538893
 20
62.614928
 30
0.0
 10
245.672765
 20
62.657138
 30
0.0
 10
245.806241
 20
62.705629
 30
0.0
 10
245.938195
 20
62.759925
 30
0.0
 10
246.067502
 20
62.819550
 30
0.0
 10
246.193036
 20
62.884028
 30
0.0
 10
246.313644
 20
62.952869
 30
0.0
 10
246.428066
 20
63.025509
 30
0.0
 10
246.535166
 20
63.101444
 30
0.0
 10
246.633830
 20
63.180181
 30
0.0
 10
246.722946
 20
63.261230
 30
0.0
 10
246.801398
 20
63.344096
 30
0.0
 10
246.801398
 20
63.344096
 30
0.0
 10
246.869985
 20
63.432409
 30
0.0
 10
246.937773
 20
63.533049
 30
0.0
 10
246.997035
 20
63.628535
 30
0.0
 10
247.021053
 20
63.668884
 30
0.0
 10
247.041679
 20
63.704221
 30
0.0
 10
247.125703
 20
63.854118
 30
0.0
 10
247.211823
 20
64.016869
 30
0.0
 10
247.298177
 20
64.188976
 30
0.0
 10
247.382904
 20
64.366939
 30
0.0
 10
247.540025
 20
64.726442
 30
0.0
 10
247.540025
 20
64.726442
 30
0.0
 10
247.705839
 20
65.125800
 30
0.0
 10
247.879167
 20
65.530493
 30
0.0
 10
248.058483
 20
65.935194
 30
0.0
 10
248.242262
 20
66.334572
 30
0.0
 10
248.428978
 20
66.723300
 30
0.0
 10
248.524191
 20
66.914437
 30
0.0
 10
248.579577
 20
67.023239
 30
0.0
 10
248.641948
 20
67.143521
 30
0.0
 10
248.710236
 20
67.272359
 30
0.0
 10
248.783375
 20
67.406832
 30
0.0
 10
248.939939
 20
67.680992
 30
0.0
 10
249.021230
 20
67.814835
 30
0.0
 10
249.103104
 20
67.942623
 30
0.0
 10
249.184496
 20
68.061434
 30
0.0
 10
249.264337
 20
68.168345
 30
0.0
 10
249.264337
 20
68.168345
 30
0.0
 10
249.352334
 20
68.284675
 30
0.0
 10
249.437668
 20
68.407381
 30
0.0
 10
249.521220
 20
68.538572
 30
0.0
 10
249.603868
 20
68.680359
 30
0.0
 10
249.686491
 20
68.834853
 30
0.0
 10
249.769969
 20
69.004165
 30
0.0
 10
249.855181
 20
69.190403
 30
0.0
 10
249.943007
 20
69.395680
 30
0.0
 10
250.034196
 20
69.621780
 30
0.0
 10
250.081279
 20
69.743172
 30
0.0
 10
250.129497
 20
69.870468
 30
0.0
 10
250.178959
 20
70.003922
 30
0.0
 10
250.229773
 20
70.143792
 30
0.0
 10
250.282045
 20
70.290334
 30
0.0
 10
250.335885
 20
70.443802
 30
0.0
 10
250.391399
 20
70.604455
 30
0.0
 10
250.448695
 20
70.772547
 30
0.0
 10
250.507881
 20
70.948335
 30
0.0
 10
250.569065
 20
71.132075
 30
0.0
 10
250.632355
 20
71.324022
 30
0.0
 10
250.697858
 20
71.524434
 30
0.0
 10
250.765682
 20
71.733566
 30
0.0
 10
250.835934
 20
71.951674
 30
0.0
 10
250.835934
 20
71.951674
 30
0.0
 10
251.061449
 20
72.668082
 30
0.0
 10
251.279015
 20
73.390887
 30
0.0
 10
251.486494
 20
74.117898
 30
0.0
 10
251.681747
 20
74.846924
 30
0.0
 10
251.862837
 20
75.576455
 30
0.0
 10
252.028680
 20
76.308066
 30
0.0
 10
252.178199
 20
77.043525
 30
0.0
 10
252.310300
 20
77.784545
 30
0.0
 10
252.310300
 20
77.784545
 30
0.0
 10
252.332930
 20
77.933763
 30
0.0
 10
252.355398
 20
78.105860
 30
0.0
 10
252.377649
 20
78.299401
 30
0.0
 10
252.399627
 20
78.512953
 30
0.0
 10
252.421277
 20
78.745081
 30
0.0
 10
252.442543
 20
78.994350
 30
0.0
 10
252.463370
 20
79.259325
 30
0.0
 10
252.483702
 20
79.538571
 30
0.0
 10
252.503483
 20
79.830655
 30
0.0
 10
252.522659
 20
80.134141
 30
0.0
 10
252.541174
 20
80.447595
 30
0.0
 10
252.558971
 20
80.769582
 30
0.0
 10
252.592196
 20
81.433448
 30
0.0
 10
252.621905
 20
82.114662
 30
0.0
 10
252.647656
 20
82.801922
 30
0.0
 10
252.668998
 20
83.483817
 30
0.0
 10
252.685483
 20
84.148937
 30
0.0
 10
252.691763
 20
84.471641
 30
0.0
 10
252.696660
 20
84.785871
 30
0.0
 10
252.700119
 20
85.090203
 30
0.0
 10
252.702081
 20
85.383208
 30
0.0
 10
252.702493
 20
85.663461
 30
0.0
 10
252.701296
 20
85.929536
 30
0.0
 10
252.698436
 20
86.180007
 30
0.0
 10
252.693855
 20
86.413446
 30
0.0
 10
252.687499
 20
86.628427
 30
0.0
 10
252.679310
 20
86.823524
 30
0.0
 10
252.679310
 20
86.823524
 30
0.0
 10
252.667830
 20
87.099624
 30
0.0
 10
252.661871
 20
87.360629
 30
0.0
 10
252.662095
 20
87.606912
 30
0.0
 10
252.669166
 20
87.838846
 30
0.0
 10
252.683657
 20
88.055740
 30
0.0
 10
252.706072
 20
88.256960
 30
0.0
 10
252.737089
 20
88.444803
 30
0.0
 10
252.777389
 20
88.621632
 30
0.0
 10
252.777389
 20
88.621632
 30
0.0
 10
252.809415
 20
88.751593
 30
0.0
 10
252.840082
 20
88.889504
 30
0.0
 10
252.868511
 20
89.027921
 30
0.0
 10
252.893823
 20
89.159403
 30
0.0
 10
252.915131
 20
89.276445
 30
0.0
 10
252.924003
 20
89.327195
 30
0.0
 10
252.931540
 20
89.371519
 30
0.0
 10
252.937633
 20
89.408479
 30
0.0
 10
252.942170
 20
89.437141
 30
0.0
 10
252.945041
 20
89.456571
 30
0.0
 10
252.946136
 20
89.465831
 30
0.0
 10
252.946136
 20
89.465831
 30
0.0
 10
252.940911
 20
89.489623
 30
0.0
 10
252.919858
 20
89.498606
 30
0.0
 10
252.894510
 20
89.494553
 30
0.0
 10
252.862289
 20
89.482734
 30
0.0
 10
252.821753
 20
89.463172
 30
0.0
 10
252.772201
 20
89.435596
 30
0.0
 10
252.713093
 20
89.399774
 30
0.0
 10
252.643874
 20
89.355454
 30
0.0
 10
252.563965
 20
89.302347
 30
0.0
 10
252.472810
 20
89.240178
 30
0.0
 10
252.369854
 20
89.168671
 30
0.0
 10
252.254540
 20
89.087549
 30
0.0
 10
252.126312
 20
88.996537
 30
0.0
 10
251.984612
 20
88.895359
 30
0.0
 10
251.828886
 20
88.783740
 30
0.0
 10
251.658576
 20
88.661404
 30
0.0
 10
251.658576
 20
88.661404
 30
0.0
 10
251.546100
 20
88.578854
 30
0.0
 10
251.442498
 20
88.499308
 30
0.0
 10
251.347034
 20
88.422294
 30
0.0
 10
251.258975
 20
88.347339
 30
0.0
 10
251.177587
 20
88.273971
 30
0.0
 10
251.102134
 20
88.201716
 30
0.0
 10
250.966100
 20
88.058657
 30
0.0
 10
250.845452
 20
87.914792
 30
0.0
 10
250.734982
 20
87.766985
 30
0.0
 10
250.629129
 20
87.611801
 30
0.0
 10
250.522331
 20
87.445804
 30
0.0
 10
250.522331
 20
87.445804
 30
0.0
 10
250.403004
 20
87.219584
 30
0.0
 10
250.289286
 20
86.978625
 30
0.0
 10
250.180977
 20
86.725433
 30
0.0
 10
250.077876
 20
86.462515
 30
0.0
 10
249.979784
 20
86.192378
 30
0.0
 10
249.886501
 20
85.917528
 30
0.0
 10
249.713297
 20
85.362792
 30
0.0
 10
249.553841
 20
84.807031
 30
0.0
 10
249.478804
 20
84.533829
 30
0.0
 10
249.406858
 20
84.267127
 30
0.0
 10
249.337975
 20
84.009460
 30
0.0
 10
249.272130
 20
83.763363
 30
0.0
 10
249.209295
 20
83.531373
 30
0.0
 10
249.149443
 20
83.316023
 30
0.0
 10
249.149443
 20
83.316023
 30
0.0
 10
249.062376
 20
82.745780
 30
0.0
 10
248.965317
 20
82.176438
 30
0.0
 10
248.914857
 20
81.882095
 30
0.0
 10
248.864080
 20
81.575966
 30
0.0
 10
248.813713
 20
81.254045
 30
0.0
 10
248.765416
 20
80.918719
 30
0.0
 10
248.681894
 20
80.239541
 30
0.0
 10
248.646548
 20
79.892785
 30
0.0
 10
248.615350
 20
79.539015
 30
0.0
 10
248.588201
 20
79.176556
 30
0.0
 10
248.565005
 20
78.803733
 30
0.0
 10
248.545665
 20
78.418870
 30
0.0
 10
248.530082
 20
78.020291
 30
0.0
 10
248.530082
 20
78.020291
 30
0.0
 10
248.521540
 20
77.920130
 30
0.0
 10
248.506131
 20
77.804036
 30
0.0
 10
248.484720
 20
77.676022
 30
0.0
 10
248.458169
 20
77.540101
 30
0.0
 10
248.391157
 20
77.253085
 30
0.0
 10
248.351677
 20
77.109044
 30
0.0
 10
248.309256
 20
76.971395
 30
0.0
 10
248.309256
 20
76.971395
 30
0.0
 10
248.266557
 20
76.841070
 30
0.0
 10
248.222189
 20
76.704970
 30
0.0
 10
248.134202
 20
76.433490
 30
0.0
 10
248.091112
 20
76.299840
 30
0.0
 10
248.045496
 20
76.157806
 30
0.0
 10
248.000297
 20
76.016349
 30
0.0
 10
247.958655
 20
75.885040
 30
0.0
 10
247.958655
 20
75.885040
 30
0.0
 10
247.907594
 20
75.745651
 30
0.0
 10
247.849987
 20
75.628926
 30
0.0
 10
247.785506
 20
75.533740
 30
0.0
 10
247.747600
 20
75.491468
 30
0.0
 10
247.705175
 20
75.454358
 30
0.0
 10
247.658210
 20
75.424522
 30
0.0
 10
247.606837
 20
75.404208
 30
0.0
 10
247.552290
 20
75.395723
 30
0.0
 10
247.497380
 20
75.400114
 30
0.0
 10
247.444331
 20
75.416354
 30
0.0
 10
247.394916
 20
75.442044
 30
0.0
 10
247.349351
 20
75.474892
 30
0.0
 10
247.307806
 20
75.512727
 30
0.0
 10
247.307806
 20
75.512727
 30
0.0
 10
247.262181
 20
75.569726
 30
0.0
 10
247.218129
 20
75.632981
 30
0.0
 10
247.165628
 20
75.712612
 30
0.0
 10
247.106128
 20
75.806272
 30
0.0
 10
247.041248
 20
75.911384
 30
0.0
 10
246.972603
 20
76.025372
 30
0.0
 10
246.830492
 20
76.269669
 30
0.0
 10
246.830492
 20
76.269669
 30
0.0
 10
246.730180
 20
76.454089
 30
0.0
 10
246.646704
 20
76.627592
 30
0.0
 10
246.578312
 20
76.797610
 30
0.0
 10
246.523249
 20
76.971575
 30
0.0
 10
246.480186
 20
77.155095
 30
0.0
 10
246.447389
 20
77.352575
 30
0.0
 10
246.422587
 20
77.569396
 30
0.0
 10
246.412474
 20
77.686741
 30
0.0
 10
246.403507
 20
77.810939
 30
0.0
 10
246.403507
 20
77.810939
 30
0.0
 10
246.397135
 20
77.900465
 30
0.0
 10
246.388066
 20
78.009817
 30
0.0
 10
246.360816
 20
78.256331
 30
0.0
 10
246.342122
 20
78.377660
 30
0.0
 10
246.319117
 20
78.489589
 30
0.0
 10
246.303374
 20
78.546951
 30
0.0
 10
246.284113
 20
78.598937
 30
0.0
 10
246.259576
 20
78.639352
 30
0.0
 10
246.242706
 20
78.651718
 30
0.0
 10
246.222592
 20
78.650955
 30
0.0
 10
246.222592
 20
78.650955
 30
0.0
 10
246.188143
 20
78.629127
 30
0.0
 10
246.157964
 20
78.601392
 30
0.0
 10
246.102843
 20
78.535495
 30
0.0
 10
246.055624
 20
78.466968
 30
0.0
 10
246.006491
 20
78.386274
 30
0.0
 10
245.955387
 20
78.293742
 30
0.0
 10
245.902738
 20
78.190350
 30
0.0
 10
245.848970
 20
78.077078
 30
0.0
 10
245.794510
 20
77.954916
 30
0.0
 10
245.739827
 20
77.824971
 30
0.0
 10
245.685327
 20
77.688177
 30
0.0
 10
245.578440
 20
77.397557
 30
0.0
 10
245.476973
 20
77.090091
 30
0.0
 10
245.384048
 20
76.772814
 30
0.0
 10
245.384048
 20
76.772814
 30
0.0
 10
245.342850
 20
76.616377
 30
0.0
 10
245.306874
 20
76.464992
 30
0.0
 10
245.250490
 20
76.165428
 30
0.0
 10
245.230035
 20
76.011278
 30
0.0
 10
245.214708
 20
75.850234
 30
0.0
 10
245.204483
 20
75.679309
 30
0.0
 10
245.199337
 20
75.495518
 30
0.0
 10
245.199263
 20
75.296054
 30
0.0
 10
245.204245
 20
75.078135
 30
0.0
 10
245.214245
 20
74.838780
 30
0.0
 10
245.221114
 20
74.710133
 30
0.0
 10
245.229223
 20
74.575009
 30
0.0
 10
245.238567
 20
74.433036
 30
0.0
 10
245.249142
 20
74.283841
 30
0.0
 10
245.260942
 20
74.127051
 30
0.0
 10
245.273963
 20
73.962294
 30
0.0
 10
245.288199
 20
73.789198
 30
0.0
 10
245.303647
 20
73.607389
 30
0.0
 10
245.320300
 20
73.416495
 30
0.0
 10
245.338156
 20
73.216144
 30
0.0
 10
245.338156
 20
73.216144
 30
0.0
 10
245.353338
 20
73.000020
 30
0.0
 10
245.358162
 20
72.792006
 30
0.0
 10
245.351668
 20
72.584045
 30
0.0
 10
245.332898
 20
72.368080
 30
0.0
 10
245.300985
 20
72.136435
 30
0.0
 10
245.279847
 20
72.012333
 30
0.0
 10
245.255106
 20
71.881351
 30
0.0
 10
245.226651
 20
71.742467
 30
0.0
 10
245.194371
 20
71.594661
 30
0.0
 10
245.158153
 20
71.436910
 30
0.0
 10
245.117888
 20
71.268194
 30
0.0
 10
245.117888
 20
71.268194
 30
0.0
 10
245.053859
 20
70.987301
 30
0.0
 10
244.993740
 20
70.692892
 30
0.0
 10
244.938819
 20
70.396412
 30
0.0
 10
244.890367
 20
70.109197
 30
0.0
 10
244.848001
 20
69.831680
 30
0.0
 10
244.812078
 20
69.565566
 30
0.0
 10
244.797010
 20
69.439299
 30
0.0
 10
244.784125
 20
69.318901
 30
0.0
 10
244.773614
 20
69.205377
 30
0.0
 10
244.765667
 20
69.099732
 30
0.0
 10
244.765667
 20
69.099732
 30
0.0
 10
244.756336
 20
68.948126
 30
0.0
 10
244.749117
 20
68.809356
 30
0.0
 10
244.744202
 20
68.681913
 30
0.0
 10
244.741782
 20
68.564288
 30
0.0
 10
244.742049
 20
68.454972
 30
0.0
 10
244.745196
 20
68.352457
 30
0.0
 10
244.760892
 20
68.161790
 30
0.0
 10
244.790323
 20
67.980692
 30
0.0
 10
244.834848
 20
67.797532
 30
0.0
 10
244.863205
 20
67.701392
 30
0.0
 10
244.895856
 20
67.600190
 30
0.0
 10
244.932976
 20
67.492412
 30
0.0
 10
244.974737
 20
67.376544
 30
0.0
 10
244.974737
 20
67.376544
 30
0.0
 10
245.053812
 20
67.146318
 30
0.0
 10
245.123422
 20
66.911765
 30
0.0
 10
245.178686
 20
66.680213
 30
0.0
 10
245.198054
 20
66.562437
 30
0.0
 10
245.203079
 20
66.499390
 30
0.0
 10
245.198918
 20
66.444965
 30
0.0
 10
245.198918
 20
66.444965
 30
0.0
 10
245.169514
 20
66.371172
 30
0.0
 10
245.147076
 20
66.338256
 30
0.0
 10
245.119731
 20
66.309800
 30
0.0
 10
245.087903
 20
66.286357
 30
0.0
 10
245.052390
 20
66.268225
 30
0.0
 10
244.975418
 20
66.247451
 30
0.0
 10
244.894583
 20
66.243315
 30
0.0
 10
244.813948
 20
66.251348
 30
0.0
 10
244.729140
 20
66.269552
 30
0.0
 10
244.638207
 20
66.297931
 30
0.0
 10
244.541589
 20
66.336422
 30
0.0
 10
244.440048
 20
66.384822
 30
0.0
 10
244.334478
 20
66.442829
 30
0.0
 10
244.225481
 20
66.510245
 30
0.0
 10
244.113657
 20
66.586872
 30
0.0
 10
243.999607
 20
66.672512
 30
0.0
 10
243.883933
 20
66.766967
 30
0.0
 10
243.767236
 20
66.870040
 30
0.0
 10
243.767236
 20
66.870040
 30
0.0
 10
243.646490
 20
66.978775
 30
0.0
 10
243.531835
 20
67.077401
 30
0.0
 10
243.423532
 20
67.164926
 30
0.0
 10
243.321838
 20
67.240358
 30
0.0
 10
243.227025
 20
67.302699
 30
0.0
 10
243.140313
 20
67.350455
 30
0.0
 10
243.061978
 20
67.383098
 30
0.0
 10
242.989880
 20
67.400934
 30
0.0
 10
242.916970
 20
67.402130
 30
0.0
 10
242.881753
 20
67.394435
 30
0.0
 10
242.848547
 20
67.380720
 30
0.0
 10
242.790741
 20
67.337084
 30
0.0
 10
242.745216
 20
67.278032
 30
0.0
 10
242.707990
 20
67.206027
 30
0.0
 10
242.676497
 20
67.121475
 30
0.0
 10
242.648847
 20
67.022339
 30
0.0
 10
242.624450
 20
66.908596
 30
0.0
  0
SPLINE
  5
10f
100
AcDbEntity
  8
0
 62
7
100
AcDbSpline
 70
8
 71
3
 72
8
 73
4
 74
0
 40
0
 40
0
 40
0
 40
0
 40
1
 40
1
 40
1
 40
1
 10
189.377765
 20
19.055226
 30
0.0
 10
189.377765
 20
18.654183
 30
0.0
 10
189.591719
 20
18.283604
 30
0.0
 10
189.939032
 20
18.083083
 30
0.0
  0
SPLINE
  5
110
100
AcDbEntity
  8
0
 62
7
100
AcDbSpline
 70
8
 71
3
 72
8
 73
4
 74
0
 40
0
 40
0
 40
0
 40
0
 40
1
 40
1
 40
1
 40
1
 10
189.939032
 20
18.083083
 30
0.0
 10
190.286345
 20
17.882562
 30
0.0
 10
190.714253
 20
17.882562
 30
0.0
 10
191.061566
 20
18.083083
 30
0.0
  0
SPLINE
  5
111
100
AcDbEntity
  8
0
 62
7
100
AcDbSpline
 70
8
 71
3
 72
8
 73
4
 74
0
 40
0
 40
0
 40
0
 40
0
 40
1
 40
1
 40
1
 40
1
 10
191.061566
 20
18.083083
 30
0.0
 10
191.408879
 20
18.283604
 30
0.0
 10
191.622833
 20
18.654183
 30
0.0
 10
191.622833
 20
19.055226
 30
0.0
  0
SPLINE
  5
112
100
AcDbEntity
  8
0
 62
7
100
AcDbSpline
 70
8
 71
3
 72
8
 73
4
 74
0
 40
0
 40
0
 40
0
 40
0
 40
1
 40
1
 40
1
 40
1
 10
191.622833
 20
19.055226
 30
0.0
 10
191.622833
 20
19.456269
 30
0.0
 10
191.408879
 20
19.826848
 30
0.0
 10
191.061566
 20
20.027369
 30
0.0
  0
SPLINE
  5
113
100
AcDbEntity
  8
0
 62
7
100
AcDbSpline
 70
8
 71
3
 72
8
 73
4
 74
0
 40
0
 40
0
 40
0
 40
0
 40
1
 40
1
 40
1
 40
1
 10
191.061566
 20
20.027369
 30
0.0
 10
190.714253
 20
20.227890
 30
0.0
 10
190.286345
 20
20.227890
 30
0.0
 10
189.939032
 20
20.027369
 30
0.0
  0
SPLINE
  5
114
100
AcDbEntity
  8
0
 62
7
100
AcDbSpline
 70
8
 71
3
 72
8
 73
4
 74
0
 40
0
 40
0
 40
0
 40
0
 40
1
 40
1
 40
1
 40
1
 10
189.939032
 20
20.027369
 30
0.0
 10
189.591719
 20
19.826848
 30
0.0
 10
189.377765
 20
19.456269
 30
0.0
 10
189.377765
 20
19.055226
 30
0.0
  0
LWPOLYLINE
  5
115
100
AcDbEntity
  8
0
 62
7
100
AcDbPolyline
 90
1
 70
1
 10
36.977578
 20
19.055226
 30
0.0
  0
SPLINE
  5
116
100
AcDbEntity
  8
0
 62
7
100
AcDbSpline
 70
8
 71
3
 72
8
 73
4
 74
0
 40
0
 40
0
 40
0
 40
0
 40
1
 40
1
 40
1
 40
1
 10
36.977578
 20
76.203983
 30
0.0
 10
36.977578
 20
75.802940
 30
0.0
 10
37.191532
 20
75.432361
 30
0.0
 10
37.538845
 20
75.231840
 30
0.0
  0
SPLINE
  5
117
100
AcDbEntity
  8
0
 62
7
100
AcDbSpline
 70
8
 71
3
 72
8
 73
4
 74
0
 40
0
 40
0
 40
0
 40
0
 40
1
 40
1
 40
1
 40
1
 10
37.538845
 20
75.231840
 30
0.0
 10
37.886158
 20
75.031319
 30
0.0
 10
38.314066
 20
75.031319
 30
0.0
 10
38.661379
 20
75.231840
 30
0.0
  0
SPLINE
  5
118
100
AcDbEntity
  8
0
 62
7
100
AcDbSpline
 70
8
 71
3
 72
8
 73
4
 74
0
 40
0
 40
0
 40
0
 40
0
 40
1
 40
1
 40
1
 40
1
 10
38.661379
 20
75.231840
 30
0.0
 10
39.008692
 20
75.432361
 30
0.0
 10
39.222646
 20
75.802940
 30
0.0
 10
39.222646
 20
76.203983
 30
0.0
  0
SPLINE
  5
119
100
AcDbEntity
  8
0
 62
7
100
AcDbSpline
 70
8
 71
3
 72
8
 73
4
 74
0
 40
0
 40
0
 40
0
 40
0
 40
1
 40
1
 40
1
 40
1
 10
39.222646
 20
76.203983
 30
0.0
 10
39.222646
 20
76.605026
 30
0.0
 10
39.008692
 20
76.975605
 30
0.0
 10
38.661379
 20
77.176126
 30
0.0
  0
SPLINE
  5
11a
100
AcDbEntity
  8
0
 62
7
100
AcDbSpline
 70
8
 71
3
 72
8
 73
4
 74
0
 40
0
 40
0
 40
0
 40
0
 40
1
 40
1
 40
1
 40
1
 10
38.661379
 20
77.176126
 30
0.0
 10
38.314066
 20
77.376647
 30
0.0
 10
37.886158
 20
77.376647
 30
0.0
 10
37.538845
 20
77.176126
 30
0.0
  0
SPLINE
  5
11b
100
AcDbEntity
  8
0
 62
7
100
AcDbSpline
 70
8
 71
3
 72
8
 73
4
 74
0
 40
0
 40
0
 40
0
 40
0
 40
1
 40
1
 40
1
 40
1
 10
37.538845
 20
77.176126
 30
0.0
 10
37.191532
 20
76.975605
 30
0.0
 10
36.977578
 20
76.605026
 30
0.0
 10
36.977578
 20
76.203983
 30
0.0
  0
LWPOLYLINE
  5
11c
100
AcDbEntity
  8
0
 62
7
100
AcDbPolyline
 90
1
 70
1
 10
189.377765
 20
19.055226
 30
0.0
  0
LWPOLYLINE
  5
11d
100
AcDbEntity
  8
0
 62
7
100
AcDbPolyline
 90
1
 70
1
 10
36.977578
 20
76.203983
 30
0.0
  0
LWPOLYLINE
  5
11e
100
AcDbEntity
  8
0
 62
7
100
AcDbPolyline
 90
5
 70
1
 10
269.256163
 20
83.169986
 30
0.0
 10
283.256181
 20
83.169986
 30
0.0
 10
283.256181
 20
69.169968
 30
0.0
 10
269.256163
 20
69.169968
 30
0.0
 10
269.256163
 20
83.169986
 30
0.0
  0
LWPOLYLINE
  5
11f
100
AcDbEntity
  8
0
 62
7
100
AcDbPolyline
 90
5
 70
1
 10
340.406252
 20
16.494902
 30
0.0
 10
340.406252
 20
2.494885
 30
0.0
 10
326.406235
 20
2.494885
 30
0.0
 10
326.406235
 20
16.494902
 30
0.0
 10
340.406252
 20
16.494902
 30
0.0
  0
SPLINE
  5
120
100
AcDbEntity
  8
0
 62
7
100
AcDbSpline
 70
8
 71
3
 72
8
 73
4
 74
0
 40
0
 40
0
 40
0
 40
0
 40
1
 40
1
 40
1
 40
1
 10
322.727904
 20
38.103975
 30
0.0
 10
322.727904
 20
37.702932
 30
0.0
 10
322.941858
 20
37.332353
 30
0.0
 10
323.289171
 20
37.131832
 30
0.0
  0
SPLINE
  5
121
100
AcDbEntity
  8
0
 62
7
100
AcDbSpline
 70
8
 71
3
 72
8
 73
4
 74
0
 40
0
 40
0
 40
0
 40
0
 40
1
 40
1
 40
1
 40
1
 10
323.289171
 20
37.131832
 30
0.0
 10
323.636484
 20
36.931311
 30
0.0
 10
324.064392
 20
36.931311
 30
0.0
 10
324.411705
 20
37.131832
 30
0.0
  0
SPLINE
  5
122
100
AcDbEntity
  8
0
 62
7
100
AcDbSpline
 70
8
 71
3
 72
8
 73
4
 74
0
 40
0
 40
0
 40
0
 40
0
 40
1
 40
1
 40
1
 40
1
 10
324.411705
 20
37.131832
 30
0.0
 10
324.759018
 20
37.332353
 30
0.0
 10
324.972972
 20
37.702932
 30
0.0
 10
324.972972
 20
38.103975
 30
0.0
  0
SPLINE
  5
123
100
AcDbEntity
  8
0
 62
7
100
AcDbSpline
 70
8
 71
3
 72
8
 73
4
 74
0
 40
0
 40
0
 40
0
 40
0
 40
1
 40
1
 40
1
 40
1
 10
324.972972
 20
38.103975
 30
0.0
 10
324.972972
 20
38.505018
 30
0.0
 10
324.759018
 20
38.875597
 30
0.0
 10
324.411705
 20
39.076118
 30
0.0
  0
SPLINE
  5
124
100
AcDbEntity
  8
0
 62
7
100
AcDbSpline
 70
8
 71
3
 72
8
 73
4
 74
0
 40
0
 40
0
 40
0
 40
0
 40
1
 40
1
 40
1
 40
1
 10
324.411705
 20
39.076118
 30
0.0
 10
324.064392
 20
39.276640
 30
0.0
 10
323.636484
 20
39.276640
 30
0.0
 10
323.289171
 20
39.076118
 30
0.0
  0
SPLINE
  5
125
100
AcDbEntity
  8
0
 62
7
100
AcDbSpline
 70
8
 71
3
 72
8
 73
4
 74
0
 40
0
 40
0
 40
0
 40
0
 40
1
 40
1
 40
1
 40
1
 10
323.289171
 20
39.076118
 30
0.0
 10
322.941858
 20
38.875597
 30
0.0
 10
322.727904
 20
38.505018
 30
0.0
 10
322.727904
 20
38.103975
 30
0.0
  0
LWPOLYLINE
  5
126
100
AcDbEntity
  8
0
 62
7
100
AcDbPolyline
 90
5
 70
1
 10
269.256163
 20
45.069937
 30
0.0
 10
283.256181
 20
45.069937
 30
0.0
 10
283.256181
 20
31.069919
 30
0.0
 10
269.256163
 20
31.069919
 30
0.0
 10
269.256163
 20
45.069937
 30
0.0
  0
SPLINE
  5
127
100
AcDbEntity
  8
0
 62
7
100
AcDbSpline
 70
8
 71
3
 72
8
 73
4
 74
0
 40
0
 40
0
 40
0
 40
0
 40
1
 40
1
 40
1
 40
1
 10
113.177723
 20
57.154009
 30
0.0
 10
113.177723
 20
56.752966
 30
0.0
 10
113.391677
 20
56.382387
 30
0.0
 10
113.738990
 20
56.181866
 30
0.0
  0
SPLINE
  5
128
100
AcDbEntity
  8
0
 62
7
100
AcDbSpline
 70
8
 71
3
 72
8
 73
4
 74
0
 40
0
 40
0
 40
0
 40
0
 40
1
 40
1
 40
1
 40
1
 10
113.738990
 20
56.181866
 30
0.0
 10
114.086303
 20
55.981345
 30
0.0
 10
114.514211
 20
55.981345
 30
0.0
 10
114.861524
 20
56.181866
 30
0.0
  0
SPLINE
  5
129
100
AcDbEntity
  8
0
 62
7
100
AcDbSpline
 70
8
 71
3
 72
8
 73
4
 74
0
 40
0
 40
0
 40
0
 40
0
 40
1
 40
1
 40
1
 40
1
 10
114.861524
 20
56.181866
 30
0.0
 10
115.208837
 20
56.382387
 30
0.0
 10
115.422791
 20
56.752966
 30
0.0
 10
115.422791
 20
57.154009
 30
0.0
  0
SPLINE
  5
12a
100
AcDbEntity
  8
0
 62
7
100
AcDbSpline
 70
8
 71
3
 72
8
 73
4
 74
0
 40
0
 40
0
 40
0
 40
0
 40
1
 40
1
 40
1
 40
1
 10
115.422791
 20
57.154009
 30
0.0
 10
115.422791
 20
57.555052
 30
0.0
 10
115.208837
 20
57.925631
 30
0.0
 10
114.861524
 20
58.126152
 30
0.0
  0
SPLINE
  5
12b
100
AcDbEntity
  8
0
 62
7
100
AcDbSpline
 70
8
 71
3
 72
8
 73
4
 74
0
 40
0
 40
0
 40
0
 40
0
 40
1
 40
1
 40
1
 40
1
 10
114.861524
 20
58.126152
 30
0.0
 10
114.514211
 20
58.326673
 30
0.0
 10
114.086303
 20
58.326673
 30
0.0
 10
113.738990
 20
58.126152
 30
0.0
  0
SPLINE
  5
12c
100
AcDbEntity
  8
0
 62
7
100
AcDbSpline
 70
8
 71
3
 72
8
 73
4
 74
0
 40
0
 40
0
 40
0
 40
0
 40
1
 40
1
 40
1
 40
1
 10
113.738990
 20
58.126152
 30
0.0
 10
113.391677
 20
57.925631
 30
0.0
 10
113.177723
 20
57.555052
 30
0.0
 10
113.177723
 20
57.154009
 30
0.0
  0
LWPOLYLINE
  5
12d
100
AcDbEntity
  8
0
 62
7
100
AcDbPolyline
 90
1
 70
1
 10
322.727904
 20
38.103975
 30
0.0
  0
SPLINE
  5
12e
100
AcDbEntity
  8
0
 62
7
100
AcDbSpline
 70
8
 71
3
 72
8
 73
4
 74
0
 40
0
 40
0
 40
0
 40
0
 40
1
 40
1
 40
1
 40
1
 10
189.377765
 20
76.203983
 30
0.0
 10
189.377765
 20
75.802940
 30
0.0
 10
189.591719
 20
75.432361
 30
0.0
 10
189.939032
 20
75.231840
 30
0.0
  0
SPLINE
  5
12f
100
AcDbEntity
  8
0
 62
7
100
AcDbSpline
 70
8
 71
3
 72
8
 73
4
 74
0
 40
0
 40
0
 40
0
 40
0
 40
1
 40
1
 40
1
 40
1
 10
189.939032
 20
75.231840
 30
0.0
 10
190.286345
 20
75.031319
 30
0.0
 10
190.714253
 20
75.031319
 30
0.0
 10
191.061566
 20
75.231840
 30
0.0
  0
SPLINE
  5
130
100
AcDbEntity
  8
0
 62
7
100
AcDbSpline
 70
8
 71
3
 72
8
 73
4
 74
0
 40
0
 40
0
 40
0
 40
0
 40
1
 40
1
 40
1
 40
1
 10
191.061566
 20
75.231840
 30
0.0
 10
191.408879
 20
75.432361
 30
0.0
 10
191.622833
 20
75.802940
 30
0.0
 10
191.622833
 20
76.203983
 30
0.0
  0
SPLINE
  5
131
100
AcDbEntity
  8
0
 62
7
100
AcDbSpline
 70
8
 71
3
 72
8
 73
4
 74
0
 40
0
 40
0
 40
0
 40
0
 40
1
 40
1
 40
1
 40
1
 10
191.622833
 20
76.203983
 30
0.0
 10
191.622833
 20
76.605026
 30
0.0
 10
191.408879
 20
76.975605
 30
0.0
 10
191.061566
 20
77.176126
 30
0.0
  0
SPLINE
  5
132
100
AcDbEntity
  8
0
 62
7
100
AcDbSpline
 70
8
 71
3
 72
8
 73
4
 74
0
 40
0
 40
0
 40
0
 40
0
 40
1
 40
1
 40
1
 40
1
 10
191.061566
 20
77.176126
 30
0.0
 10
190.714253
 20
77.376647
 30
0.0
 10
190.286345
 20
77.376647
 30
0.0
 10
189.939032
 20
77.176126
 30
0.0
  0
SPLINE
  5
133
100
AcDbEntity
  8
0
 62
7
100
AcDbSpline
 70
8
 71
3
 72
8
 73
4
 74
0
 40
0
 40
0
 40
0
 40
0
 40
1
 40
1
 40
1
 40
1
 10
189.939032
 20
77.176126
 30
0.0
 10
189.591719
 20
76.975605
 30
0.0
 10
189.377765
 20
76.605026
 30
0.0
 10
189.377765
 20
76.203983
 30
0.0
  0
LWPOLYLINE
  5
134
100
AcDbEntity
  8
0
 62
7
100
AcDbPolyline
 90
1
 70
1
 10
113.177723
 20
57.154009
 30
0.0
  0
SPLINE
  5
135
100
AcDbEntity
  8
0
 62
7
100
AcDbSpline
 70
8
 71
3
 72
8
 73
4
 74
0
 40
0
 40
0
 40
0
 40
0
 40
1
 40
1
 40
1
 40
1
 10
303.677881
 20
76.203983
 30
0.0
 10
303.677881
 20
75.802940
 30
0.0
 10
303.891835
 20
75.432361
 30
0.0
 10
304.239148
 20
75.231840
 30
0.0
  0
SPLINE
  5
136
100
AcDbEntity
  8
0
 62
7
100
AcDbSpline
 70
8
 71
3
 72
8
 73
4
 74
0
 40
0
 40
0
 40
0
 40
0
 40
1
 40
1
 40
1
 40
1
 10
304.239148
 20
75.231840
 30
0.0
 10
304.586461
 20
75.031319
 30
0.0
 10
305.014369
 20
75.031319
 30
0.0
 10
305.361682
 20
75.231840
 30
0.0
  0
SPLINE
  5
137
100
AcDbEntity
  8
0
 62
7
100
AcDbSpline
 70
8
 71
3
 72
8
 73
4
 74
0
 40
0
 40
0
 40
0
 40
0
 40
1
 40
1
 40
1
 40
1
 10
305.361682
 20
75.231840
 30
0.0
 10
305.708995
 20
75.432361
 30
0.0
 10
305.922949
 20
75.802940
 30
0.0
 10
305.922949
 20
76.203983
 30
0.0
  0
SPLINE
  5
138
100
AcDbEntity
  8
0
 62
7
100
AcDbSpline
 70
8
 71
3
 72
8
 73
4
 74
0
 40
0
 40
0
 40
0
 40
0
 40
1
 40
1
 40
1
 40
1
 10
305.922949
 20
76.203983
 30
0.0
 10
305.922949
 20
76.605026
 30
0.0
 10
305.708995
 20
76.975605
 30
0.0
 10
305.361682
 20
77.176126
 30
0.0
  0
SPLINE
  5
139
100
AcDbEntity
  8
0
 62
7
100
AcDbSpline
 70
8
 71
3
 72
8
 73
4
 74
0
 40
0
 40
0
 40
0
 40
0
 40
1
 40
1
 40
1
 40
1
 10
305.361682
 20
77.176126
 30
0.0
 10
305.014369
 20
77.376647
 30
0.0
 10
304.586461
 20
77.376647
 30
0.0
 10
304.239148
 20
77.176126
 30
0.0
  0
SPLINE
  5
13a
100
AcDbEntity
  8
0
 62
7
100
AcDbSpline
 70
8
 71
3
 72
8
 73
4
 74
0
 40
0
 40
0
 40
0
 40
0
 40
1
 40
1
 40
1
 40
1
 10
304.239148
 20
77.176126
 30
0.0
 10
303.891835
 20
76.975605
 30
0.0
 10
303.677881
 20
76.605026
 30
0.0
 10
303.677881
 20
76.203983
 30
0.0
  0
LWPOLYLINE
  5
13b
100
AcDbEntity
  8
0
 62
7
100
AcDbPolyline
 90
1
 70
1
 10
189.377765
 20
76.203983
 30
0.0
  0
LWPOLYLINE
  5
13c
100
AcDbEntity
  8
0
 62
7
100
AcDbPolyline
 90
1
 70
1
 10
303.677881
 20
76.203983
 30
0.0
  0
LWPOLYLINE
  5
13d
100
AcDbEntity
  8
0
 62
7
100
AcDbPolyline
 90
5
 70
1
 10
92.755942
 20
16.494902
 30
0.0
 10
92.755942
 20
2.494885
 30
0.0
 10
78.755925
 20
2.494885
 30
0.0
 10
78.755925
 20
16.494902
 30
0.0
 10
92.755942
 20
16.494902
 30
0.0
  0
LWPOLYLINE
  5
13e
100
AcDbEntity
  8
0
 62
7
100
AcDbPolyline
 90
5
 70
1
 10
111.805966
 20
16.494902
 30
0.0
 10
111.805966
 20
2.494885
 30
0.0
 10
97.805948
 20
2.494885
 30
0.0
 10
97.805948
 20
16.494902
 30
0.0
 10
111.805966
 20
16.494902
 30
0.0
  0
LWPOLYLINE
  5
13f
100
AcDbEntity
  8
0
 62
7
100
AcDbPolyline
 90
5
 70
1
 10
149.906014
 20
16.494902
 30
0.0
 10
149.906014
 20
2.494885
 30
0.0
 10
135.905996
 20
2.494885
 30
0.0
 10
135.905996
 20
16.494902
 30
0.0
 10
149.906014
 20
16.494902
 30
0.0
  0
LWPOLYLINE
  5
140
100
AcDbEntity
  8
0
 62
7
100
AcDbPolyline
 90
5
 70
1
 10
130.855990
 20
16.494902
 30
0.0
 10
130.855990
 20
2.494885
 30
0.0
 10
116.855972
 20
2.494885
 30
0.0
 10
116.855972
 20
16.494902
 30
0.0
 10
130.855990
 20
16.494902
 30
0.0
  0
LWPOLYLINE
  5
141
100
AcDbEntity
  8
0
 62
7
100
AcDbPolyline
 90
5
 70
1
 10
283.256181
 20
16.494902
 30
0.0
 10
283.256181
 20
2.494885
 30
0.0
 10
269.256163
 20
2.494885
 30
0.0
 10
269.256163
 20
16.494902
 30
0.0
 10
283.256181
 20
16.494902
 30
0.0
  0
LWPOLYLINE
  5
142
100
AcDbEntity
  8
0
 62
7
100
AcDbPolyline
 90
5
 70
1
 10
226.107109
 20
16.494902
 30
0.0
 10
226.107109
 20
2.494885
 30
0.0
 10
212.106092
 20
2.494885
 30
0.0
 10
212.106092
 20
16.494902
 30
0.0
 10
226.107109
 20
16.494902
 30
0.0
  0
LWPOLYLINE
  5
143
100
AcDbEntity
  8
0
 62
7
100
AcDbPolyline
 90
5
 70
1
 10
207.056085
 20
16.494902
 30
0.0
 10
207.056085
 20
2.494885
 30
0.0
 10
193.056068
 20
2.494885
 30
0.0
 10
193.056068
 20
16.494902
 30
0.0
 10
207.056085
 20
16.494902
 30
0.0
  0
LWPOLYLINE
  5
144
100
AcDbEntity
  8
0
 62
7
100
AcDbPolyline
 90
5
 70
1
 10
188.006061
 20
16.494902
 30
0.0
 10
188.006061
 20
2.494885
 30
0.0
 10
174.006044
 20
2.494885
 30
0.0
 10
174.006044
 20
16.494902
 30
0.0
 10
188.006061
 20
16.494902
 30
0.0
  0
LWPOLYLINE
  5
145
100
AcDbEntity
  8
0
 62
7
100
AcDbPolyline
 90
5
 70
1
 10
168.956038
 20
16.494902
 30
0.0
 10
168.956038
 20
2.494885
 30
0.0
 10
154.956020
 20
2.494885
 30
0.0
 10
154.956020
 20
16.494902
 30
0.0
 10
168.956038
 20
16.494902
 30
0.0
  0
LWPOLYLINE
  5
146
100
AcDbEntity
  8
0
 62
7
100
AcDbPolyline
 90
5
 70
1
 10
321.356228
 20
16.494902
 30
0.0
 10
321.356228
 20
2.494885
 30
0.0
 10
307.356211
 20
2.494885
 30
0.0
 10
307.356211
 20
16.494902
 30
0.0
 10
321.356228
 20
16.494902
 30
0.0
  0
LWPOLYLINE
  5
147
100
AcDbEntity
  8
0
 62
7
100
AcDbPolyline
 90
5
 70
1
 10
302.306204
 20
16.494902
 30
0.0
 10
302.306204
 20
2.494885
 30
0.0
 10
288.306187
 20
2.494885
 30
0.0
 10
288.306187
 20
16.494902
 30
0.0
 10
302.306204
 20
16.494902
 30
0.0
  0
LWPOLYLINE
  5
148
100
AcDbEntity
  8
0
 62
7
100
AcDbPolyline
 90
17
 70
1
 10
107.330960
 20
78.694896
 30
0.0
 10
107.330960
 20
78.696895
 30
0.0
 10
97.797669
 20
78.696895
 30
0.0
 10
97.797669
 20
92.696561
 30
0.0
 10
100.780949
 20
92.696561
 30
0.0
 10
100.780949
 20
93.664992
 30
0.0
 10
104.081017
 20
93.664992
 30
0.0
 10
104.081017
 20
92.696561
 30
0.0
 10
124.581073
 20
92.696561
 30
0.0
 10
124.581073
 20
93.664992
 30
0.0
 10
127.881111
 20
93.664992
 30
0.0
 10
127.881111
 20
92.696561
 30
0.0
 10
130.847866
 20
92.696561
 30
0.0
 10
130.847866
 20
78.696880
 30
0.0
 10
121.331130
 20
78.696880
 30
0.0
 10
121.331130
 20
78.694881
 30
0.0
 10
107.330960
 20
78.694896
 30
0.0
  0
LWPOLYLINE
  5
149
100
AcDbEntity
  8
0
 62
7
100
AcDbPolyline
 90
5
 70
1
 10
16.555847
 20
92.694998
 30
0.0
 10
16.555847
 20
78.694980
 30
0.0
 10
2.555829
 20
78.694980
 30
0.0
 10
2.555829
 20
92.694998
 30
0.0
 10
16.555847
 20
92.694998
 30
0.0
  0
LWPOLYLINE
  5
14a
100
AcDbEntity
  8
0
 62
7
100
AcDbPolyline
 90
5
 70
1
 10
35.605871
 20
92.694998
 30
0.0
 10
35.605871
 20
78.694980
 30
0.0
 10
21.605853
 20
78.694980
 30
0.0
 10
21.605853
 20
92.694998
 30
0.0
 10
35.605871
 20
92.694998
 30
0.0
  0
LWPOLYLINE
  5
14b
100
AcDbEntity
  8
0
 62
7
100
AcDbPolyline
 90
5
 70
1
 10
54.655894
 20
92.694998
 30
0.0
 10
54.655894
 20
78.694980
 30
0.0
 10
40.655877
 20
78.694980
 30
0.0
 10
40.655877
 20
92.694998
 30
0.0
 10
54.655894
 20
92.694998
 30
0.0
  0
LWPOLYLINE
  5
14c
100
AcDbEntity
  8
0
 62
7
100
AcDbPolyline
 90
5
 70
1
 10
73.705918
 20
92.694998
 30
0.0
 10
73.705918
 20
78.694980
 30
0.0
 10
59.705901
 20
78.694980
 30
0.0
 10
59.705901
 20
92.694998
 30
0.0
 10
73.705918
 20
92.694998
 30
0.0
  0
LWPOLYLINE
  5
14d
100
AcDbEntity
  8
0
 62
7
100
AcDbPolyline
 90
5
 70
1
 10
92.755942
 20
92.694998
 30
0.0
 10
92.755942
 20
78.694980
 30
0.0
 10
78.755925
 20
78.694980
 30
0.0
 10
78.755925
 20
92.694998
 30
0.0
 10
92.755942
 20
92.694998
 30
0.0
  0
LWPOLYLINE
  5
14e
100
AcDbEntity
  8
0
 62
7
100
AcDbPolyline
 90
5
 70
1
 10
149.906014
 20
92.694998
 30
0.0
 10
149.906014
 20
78.694980
 30
0.0
 10
135.905996
 20
78.694980
 30
0.0
 10
135.905996
 20
92.694998
 30
0.0
 10
149.906014
 20
92.694998
 30
0.0
  0
LWPOLYLINE
  5
14f
100
AcDbEntity
  8
0
 62
7
100
AcDbPolyline
 90
5
 70
1
 10
168.956038
 20
92.694998
 30
0.0
 10
168.956038
 20
78.694980
 30
0.0
 10
154.956020
 20
78.694980
 30
0.0
 10
154.956020
 20
92.694998
 30
0.0
 10
168.956038
 20
92.694998
 30
0.0
  0
LWPOLYLINE
  5
150
100
AcDbEntity
  8
0
 62
7
100
AcDbPolyline
 90
5
 70
1
 10
188.006061
 20
92.694998
 30
0.0
 10
188.006061
 20
78.694980
 30
0.0
 10
174.006044
 20
78.694980
 30
0.0
 10
174.006044
 20
92.694998
 30
0.0
 10
188.006061
 20
92.694998
 30
0.0
  0
LWPOLYLINE
  5
151
100
AcDbEntity
  8
0
 62
7
100
AcDbPolyline
 90
5
 70
1
 10
207.056085
 20
92.694998
 30
0.0
 10
207.056085
 20
78.694980
 30
0.0
 10
193.056068
 20
78.694980
 30
0.0
 10
193.056068
 20
92.694998
 30
0.0
 10
207.056085
 20
92.694998
 30
0.0
  0
LWPOLYLINE
  5
152
100
AcDbEntity
  8
0
 62
7
100
AcDbPolyline
 90
5
 70
1
 10
226.106109
 20
92.694998
 30
0.0
 10
226.106109
 20
78.694980
 30
0.0
 10
212.106092
 20
78.694980
 30
0.0
 10
212.106092
 20
92.694998
 30
0.0
 10
226.106109
 20
92.694998
 30
0.0
  0
LWPOLYLINE
  5
153
100
AcDbEntity
  8
0
 62
7
100
AcDbPolyline
 90
5
 70
1
 10
302.306204
 20
92.694998
 30
0.0
 10
302.306204
 20
78.694980
 30
0.0
 10
288.306187
 20
78.694980
 30
0.0
 10
288.306187
 20
92.694998
 30
0.0
 10
302.306204
 20
92.694998
 30
0.0
  0
LWPOLYLINE
  5
154
100
AcDbEntity
  8
0
 62
7
100
AcDbPolyline
 90
5
 70
1
 10
321.356228
 20
92.694998
 30
0.0
 10
321.356228
 20
78.694980
 30
0.0
 10
307.356211
 20
78.694980
 30
0.0
 10
307.356211
 20
92.694998
 30
0.0
 10
321.356228
 20
92.694998
 30
0.0
  0
LWPOLYLINE
  5
155
100
AcDbEntity
  8
0
 62
7
100
AcDbPolyline
 90
5
 70
1
 10
340.406252
 20
92.694998
 30
0.0
 10
340.406252
 20
78.694980
 30
0.0
 10
326.406235
 20
78.694980
 30
0.0
 10
326.406235
 20
92.694998
 30
0.0
 10
340.406252
 20
92.694998
 30
0.0
  0
LWPOLYLINE
  5
156
100
AcDbEntity
  8
0
 62
7
100
AcDbPolyline
 90
5
 70
1
 10
16.555847
 20
73.644974
 30
0.0
 10
16.555847
 20
59.644956
 30
0.0
 10
2.555829
 20
59.644956
 30
0.0
 10
2.555829
 20
73.644974
 30
0.0
 10
16.555847
 20
73.644974
 30
0.0
  0
LWPOLYLINE
  5
157
100
AcDbEntity
  8
0
 62
7
100
AcDbPolyline
 90
5
 70
1
 10
35.605871
 20
73.644974
 30
0.0
 10
35.605871
 20
59.644956
 30
0.0
 10
21.605853
 20
59.644956
 30
0.0
 10
21.605853
 20
73.644974
 30
0.0
 10
35.605871
 20
73.644974
 30
0.0
  0
LWPOLYLINE
  5
158
100
AcDbEntity
  8
0
 62
7
100
AcDbPolyline
 90
5
 70
1
 10
54.655894
 20
73.644974
 30
0.0
 10
54.655894
 20
59.644956
 30
0.0
 10
40.655877
 20
59.644956
 30
0.0
 10
40.655877
 20
73.644974
 30
0.0
 10
54.655894
 20
73.644974
 30
0.0
  0
LWPOLYLINE
  5
159
100
AcDbEntity
  8
0
 62
7
100
AcDbPolyline
 90
5
 70
1
 10
73.705918
 20
73.644974
 30
0.0
 10
73.705918
 20
59.644956
 30
0.0
 10
59.705901
 20
59.644956
 30
0.0
 10
59.705901
 20
73.644974
 30
0.0
 10
73.705918
 20
73.644974
 30
0.0
  0
LWPOLYLINE
  5
15a
100
AcDbEntity
  8
0
 62
7
100
AcDbPolyline
 90
5
 70
1
 10
92.755942
 20
73.644974
 30
0.0
 10
92.755942
 20
59.644956
 30
0.0
 10
78.755925
 20
59.644956
 30
0.0
 10
78.755925
 20
73.644974
 30
0.0
 10
92.755942
 20
73.644974
 30
0.0
  0
LWPOLYLINE
  5
15b
100
AcDbEntity
  8
0
 62
7
100
AcDbPolyline
 90
5
 70
1
 10
111.805966
 20
73.644974
 30
0.0
 10
111.805966
 20
59.644956
 30
0.0
 10
97.805948
 20
59.644956
 30
0.0
 10
97.805948
 20
73.644974
 30
0.0
 10
111.805966
 20
73.644974
 30
0.0
  0
LWPOLYLINE
  5
15c
100
AcDbEntity
  8
0
 62
7
100
AcDbPolyline
 90
5
 70
1
 10
130.855990
 20
73.644974
 30
0.0
 10
130.855990
 20
59.644956
 30
0.0
 10
116.855972
 20
59.644956
 30
0.0
 10
116.855972
 20
73.644974
 30
0.0
 10
130.855990
 20
73.644974
 30
0.0
  0
LWPOLYLINE
  5
15d
100
AcDbEntity
  8
0
 62
7
100
AcDbPolyline
 90
5
 70
1
 10
149.906014
 20
73.644974
 30
0.0
 10
149.906014
 20
59.644956
 30
0.0
 10
135.905996
 20
59.644956
 30
0.0
 10
135.905996
 20
73.644974
 30
0.0
 10
149.906014
 20
73.644974
 30
0.0
  0
LWPOLYLINE
  5
15e
100
AcDbEntity
  8
0
 62
7
100
AcDbPolyline
 90
5
 70
1
 10
168.956038
 20
73.644974
 30
0.0
 10
168.956038
 20
59.644956
 30
0.0
 10
154.956020
 20
59.644956
 30
0.0
 10
154.956020
 20
73.644974
 30
0.0
 10
168.956038
 20
73.644974
 30
0.0
  0
LWPOLYLINE
  5
15f
100
AcDbEntity
  8
0
 62
7
100
AcDbPolyline
 90
5
 70
1
 10
188.006061
 20
73.644974
 30
0.0
 10
188.006061
 20
59.644956
 30
0.0
 10
174.006044
 20
59.644956
 30
0.0
 10
174.006044
 20
73.644974
 30
0.0
 10
188.006061
 20
73.644974
 30
0.0
  0
LWPOLYLINE
  5
160
100
AcDbEntity
  8
0
 62
7
100
AcDbPolyline
 90
5
 70
1
 10
207.056085
 20
73.644974
 30
0.0
 10
207.056085
 20
59.644956
 30
0.0
 10
193.056068
 20
59.644956
 30
0.0
 10
193.056068
 20
73.644974
 30
0.0
 10
207.056085
 20
73.644974
 30
0.0
  0
LWPOLYLINE
  5
161
100
AcDbEntity
  8
0
 62
7
100
AcDbPolyline
 90
5
 70
1
 10
226.107109
 20
73.644974
 30
0.0
 10
226.107109
 20
59.644956
 30
0.0
 10
212.106092
 20
59.644956
 30
0.0
 10
212.106092
 20
73.644974
 30
0.0
 10
226.107109
 20
73.644974
 30
0.0
  0
LWPOLYLINE
  5
162
100
AcDbEntity
  8
0
 62
7
100
AcDbPolyline
 90
5
 70
1
 10
302.306204
 20
73.644974
 30
0.0
 10
302.306204
 20
59.644956
 30
0.0
 10
288.306187
 20
59.644956
 30
0.0
 10
288.306187
 20
73.644974
 30
0.0
 10
302.306204
 20
73.644974
 30
0.0
  0
LWPOLYLINE
  5
163
100
AcDbEntity
  8
0
 62
7
100
AcDbPolyline
 90
5
 70
1
 10
321.356228
 20
73.644974
 30
0.0
 10
321.356228
 20
59.644956
 30
0.0
 10
307.356211
 20
59.644956
 30
0.0
 10
307.356211
 20
73.644974
 30
0.0
 10
321.356228
 20
73.644974
 30
0.0
  0
LWPOLYLINE
  5
164
100
AcDbEntity
  8
0
 62
7
100
AcDbPolyline
 90
5
 70
1
 10
340.406252
 20
73.644974
 30
0.0
 10
340.406252
 20
59.644956
 30
0.0
 10
326.406235
 20
59.644956
 30
0.0
 10
326.406235
 20
73.644974
 30
0.0
 10
340.406252
 20
73.644974
 30
0.0
  0
LWPOLYLINE
  5
165
100
AcDbEntity
  8
0
 62
7
100
AcDbPolyline
 90
5
 70
1
 10
16.555847
 20
54.594950
 30
0.0
 10
16.555847
 20
40.594932
 30
0.0
 10
2.555829
 20
40.594932
 30
0.0
 10
2.555829
 20
54.594950
 30
0.0
 10
16.555847
 20
54.594950
 30
0.0
  0
LWPOLYLINE
  5
166
100
AcDbEntity
  8
0
 62
7
100
AcDbPolyline
 90
5
 70
1
 10
35.605871
 20
54.594950
 30
0.0
 10
35.605871
 20
40.594932
 30
0.0
 10
21.605853
 20
40.594932
 30
0.0
 10
21.605853
 20
54.594950
 30
0.0
 10
35.605871
 20
54.594950
 30
0.0
  0
LWPOLYLINE
  5
167
100
AcDbEntity
  8
0
 62
7
100
AcDbPolyline
 90
5
 70
1
 10
54.655894
 20
54.594950
 30
0.0
 10
54.655894
 20
40.594932
 30
0.0
 10
40.655877
 20
40.594932
 30
0.0
 10
40.655877
 20
54.594950
 30
0.0
 10
54.655894
 20
54.594950
 30
0.0
  0
LWPOLYLINE
  5
168
100
AcDbEntity
  8
0
 62
7
100
AcDbPolyline
 90
5
 70
1
 10
73.705918
 20
54.594950
 30
0.0
 10
73.705918
 20
40.594932
 30
0.0
 10
59.705901
 20
40.594932
 30
0.0
 10
59.705901
 20
54.594950
 30
0.0
 10
73.705918
 20
54.594950
 30
0.0
  0
LWPOLYLINE
  5
169
100
AcDbEntity
  8
0
 62
7
100
AcDbPolyline
 90
5
 70
1
 10
92.755942
 20
54.594950
 30
0.0
 10
92.755942
 20
40.594932
 30
0.0
 10
78.755925
 20
40.594932
 30
0.0
 10
78.755925
 20
54.594950
 30
0.0
 10
92.755942
 20
54.594950
 30
0.0
  0
LWPOLYLINE
  5
16a
100
AcDbEntity
  8
0
 62
7
100
AcDbPolyline
 90
5
 70
1
 10
111.805966
 20
54.594950
 30
0.0
 10
111.805966
 20
40.594932
 30
0.0
 10
97.805948
 20
40.594932
 30
0.0
 10
97.805948
 20
54.594950
 30
0.0
 10
111.805966
 20
54.594950
 30
0.0
  0
LWPOLYLINE
  5
16b
100
AcDbEntity
  8
0
 62
7
100
AcDbPolyline
 90
5
 70
1
 10
130.855990
 20
54.594950
 30
0.0
 10
130.855990
 20
40.594932
 30
0.0
 10
116.855972
 20
40.594932
 30
0.0
 10
116.855972
 20
54.594950
 30
0.0
 10
130.855990
 20
54.594950
 30
0.0
  0
LWPOLYLINE
  5
16c
100
AcDbEntity
  8
0
 62
7
100
AcDbPolyline
 90
5
 70
1
 10
149.906014
 20
54.594950
 30
0.0
 10
149.906014
 20
40.594932
 30
0.0
 10
135.905996
 20
40.594932
 30
0.0
 10
135.905996
 20
54.594950
 30
0.0
 10
149.906014
 20
54.594950
 30
0.0
  0
LWPOLYLINE
  5
16d
100
AcDbEntity
  8
0
 62
7
100
AcDbPolyline
 90
5
 70
1
 10
168.956038
 20
54.594950
 30
0.0
 10
168.956038
 20
40.594932
 30
0.0
 10
154.956020
 20
40.594932
 30
0.0
 10
154.956020
 20
54.594950
 30
0.0
 10
168.956038
 20
54.594950
 30
0.0
  0
LWPOLYLINE
  5
16e
100
AcDbEntity
  8
0
 62
7
100
AcDbPolyline
 90
5
 70
1
 10
188.006061
 20
54.594950
 30
0.0
 10
188.006061
 20
40.594932
 30
0.0
 10
174.006044
 20
40.594932
 30
0.0
 10
174.006044
 20
54.594950
 30
0.0
 10
188.006061
 20
54.594950
 30
0.0
  0
LWPOLYLINE
  5
16f
100
AcDbEntity
  8
0
 62
7
100
AcDbPolyline
 90
5
 70
1
 10
207.056085
 20
54.594950
 30
0.0
 10
207.056085
 20
40.594932
 30
0.0
 10
193.056068
 20
40.594932
 30
0.0
 10
193.056068
 20
54.594950
 30
0.0
 10
207.056085
 20
54.594950
 30
0.0
  0
LWPOLYLINE
  5
170
100
AcDbEntity
  8
0
 62
7
100
AcDbPolyline
 90
5
 70
1
 10
226.106109
 20
54.594950
 30
0.0
 10
226.106109
 20
40.594932
 30
0.0
 10
212.106092
 20
40.594932
 30
0.0
 10
212.106092
 20
54.594950
 30
0.0
 10
226.106109
 20
54.594950
 30
0.0
  0
LWPOLYLINE
  5
171
100
AcDbEntity
  8
0
 62
7
100
AcDbPolyline
 90
5
 70
1
 10
302.306204
 20
54.594950
 30
0.0
 10
302.306204
 20
40.594932
 30
0.0
 10
288.306187
 20
40.594932
 30
0.0
 10
288.306187
 20
54.594950
 30
0.0
 10
302.306204
 20
54.594950
 30
0.0
  0
LWPOLYLINE
  5
172
100
AcDbEntity
  8
0
 62
7
100
AcDbPolyline
 90
5
 70
1
 10
321.356228
 20
54.594950
 30
0.0
 10
321.356228
 20
40.594932
 30
0.0
 10
307.356211
 20
40.594932
 30
0.0
 10
307.356211
 20
54.594950
 30
0.0
 10
321.356228
 20
54.594950
 30
0.0
  0
LWPOLYLINE
  5
173
100
AcDbEntity
  8
0
 62
7
100
AcDbPolyline
 90
5
 70
1
 10
340.406252
 20
54.594950
 30
0.0
 10
340.406252
 20
40.594932
 30
0.0
 10
326.406235
 20
40.594932
 30
0.0
 10
326.406235
 20
54.594950
 30
0.0
 10
340.406252
 20
54.594950
 30
0.0
  0
LWPOLYLINE
  5
174
100
AcDbEntity
  8
0
 62
7
100
AcDbPolyline
 90
5
 70
1
 10
16.555847
 20
35.544926
 30
0.0
 10
16.555847
 20
21.544908
 30
0.0
 10
2.555829
 20
21.544908
 30
0.0
 10
2.555829
 20
35.544926
 30
0.0
 10
16.555847
 20
35.544926
 30
0.0
  0
LWPOLYLINE
  5
175
100
AcDbEntity
  8
0
 62
7
100
AcDbPolyline
 90
5
 70
1
 10
35.605871
 20
35.544926
 30
0.0
 10
35.605871
 20
21.544908
 30
0.0
 10
21.605853
 20
21.544908
 30
0.0
 10
21.605853
 20
35.544926
 30
0.0
 10
35.605871
 20
35.544926
 30
0.0
  0
LWPOLYLINE
  5
176
100
AcDbEntity
  8
0
 62
7
100
AcDbPolyline
 90
5
 70
1
 10
54.655894
 20
35.544926
 30
0.0
 10
54.655894
 20
21.544908
 30
0.0
 10
40.655877
 20
21.544908
 30
0.0
 10
40.655877
 20
35.544926
 30
0.0
 10
54.655894
 20
35.544926
 30
0.0
  0
LWPOLYLINE
  5
177
100
AcDbEntity
  8
0
 62
7
100
AcDbPolyline
 90
5
 70
1
 10
73.705918
 20
35.544926
 30
0.0
 10
73.705918
 20
21.544908
 30
0.0
 10
59.705901
 20
21.544908
 30
0.0
 10
59.705901
 20
35.544926
 30
0.0
 10
73.705918
 20
35.544926
 30
0.0
  0
LWPOLYLINE
  5
178
100
AcDbEntity
  8
0
 62
7
100
AcDbPolyline
 90
5
 70
1
 10
92.755942
 20
35.544926
 30
0.0
 10
92.755942
 20
21.544908
 30
0.0
 10
78.755925
 20
21.544908
 30
0.0
 10
78.755925
 20
35.544926
 30
0.0
 10
92.755942
 20
35.544926
 30
0.0
  0
LWPOLYLINE
  5
179
100
AcDbEntity
  8
0
 62
7
100
AcDbPolyline
 90
5
 70
1
 10
111.805966
 20
35.544926
 30
0.0
 10
111.805966
 20
21.544908
 30
0.0
 10
97.805948
 20
21.544908
 30
0.0
 10
97.805948
 20
35.544926
 30
0.0
 10
111.805966
 20
35.544926
 30
0.0
  0
LWPOLYLINE
  5
17a
100
AcDbEntity
  8
0
 62
7
100
AcDbPolyline
 90
5
 70
1
 10
130.855990
 20
35.544926
 30
0.0
 10
130.855990
 20
21.544908
 30
0.0
 10
116.855972
 20
21.544908
 30
0.0
 10
116.855972
 20
35.544926
 30
0.0
 10
130.855990
 20
35.544926
 30
0.0
  0
LWPOLYLINE
  5
17b
100
AcDbEntity
  8
0
 62
7
100
AcDbPolyline
 90
5
 70
1
 10
73.705918
 20
16.494902
 30
0.0
 10
73.705918
 20
2.494885
 30
0.0
 10
59.705901
 20
2.494885
 30
0.0
 10
59.705901
 20
16.494902
 30
0.0
 10
73.705918
 20
16.494902
 30
0.0
  0
LWPOLYLINE
  5
17c
100
AcDbEntity
  8
0
 62
7
100
AcDbPolyline
 90
5
 70
1
 10
54.655894
 20
16.494902
 30
0.0
 10
54.655894
 20
2.494885
 30
0.0
 10
40.655877
 20
2.494885
 30
0.0
 10
40.655877
 20
16.494902
 30
0.0
 10
54.655894
 20
16.494902
 30
0.0
  0
LWPOLYLINE
  5
17d
100
AcDbEntity
  8
0
 62
7
100
AcDbPolyline
 90
5
 70
1
 10
35.605871
 20
16.494902
 30
0.0
 10
35.605871
 20
2.494885
 30
0.0
 10
21.605853
 20
2.494885
 30
0.0
 10
21.605853
 20
16.494902
 30
0.0
 10
35.605871
 20
16.494902
 30
0.0
  0
LWPOLYLINE
  5
17e
100
AcDbEntity
  8
0
 62
7
100
AcDbPolyline
 90
5
 70
1
 10
16.555847
 20
16.494902
 30
0.0
 10
16.555847
 20
2.494885
 30
0.0
 10
2.555829
 20
2.494885
 30
0.0
 10
2.555829
 20
16.494902
 30
0.0
 10
16.555847
 20
16.494902
 30
0.0
  0
LWPOLYLINE
  5
17f
100
AcDbEntity
  8
0
 62
7
100
AcDbPolyline
 90
5
 70
1
 10
340.406252
 20
35.544926
 30
0.0
 10
340.406252
 20
21.544908
 30
0.0
 10
326.406235
 20
21.544908
 30
0.0
 10
326.406235
 20
35.544926
 30
0.0
 10
340.406252
 20
35.544926
 30
0.0
  0
LWPOLYLINE
  5
180
100
AcDbEntity
  8
0
 62
7
100
AcDbPolyline
 90
5
 70
1
 10
321.356228
 20
35.544926
 30
0.0
 10
321.356228
 20
21.544908
 30
0.0
 10
307.356211
 20
21.544908
 30
0.0
 10
307.356211
 20
35.544926
 30
0.0
 10
321.356228
 20
35.544926
 30
0.0
  0
LWPOLYLINE
  5
181
100
AcDbEntity
  8
0
 62
7
100
AcDbPolyline
 90
5
 70
1
 10
302.306204
 20
35.544926
 30
0.0
 10
302.306204
 20
21.544908
 30
0.0
 10
288.306187
 20
21.544908
 30
0.0
 10
288.306187
 20
35.544926
 30
0.0
 10
302.306204
 20
35.544926
 30
0.0
  0
LWPOLYLINE
  5
182
100
AcDbEntity
  8
0
 62
7
100
AcDbPolyline
 90
5
 70
1
 10
226.107109
 20
35.544926
 30
0.0
 10
226.107109
 20
21.544908
 30
0.0
 10
212.106092
 20
21.544908
 30
0.0
 10
212.106092
 20
35.544926
 30
0.0
 10
226.107109
 20
35.544926
 30
0.0
  0
LWPOLYLINE
  5
183
100
AcDbEntity
  8
0
 62
7
100
AcDbPolyline
 90
5
 70
1
 10
207.056085
 20
35.544926
 30
0.0
 10
207.056085
 20
21.544908
 30
0.0
 10
193.056068
 20
21.544908
 30
0.0
 10
193.056068
 20
35.544926
 30
0.0
 10
207.056085
 20
35.544926
 30
0.0
  0
LWPOLYLINE
  5
184
100
AcDbEntity
  8
0
 62
7
100
AcDbPolyline
 90
5
 70
1
 10
188.006061
 20
35.544926
 30
0.0
 10
188.006061
 20
21.544908
 30
0.0
 10
174.006044
 20
21.544908
 30
0.0
 10
174.006044
 20
35.544926
 30
0.0
 10
188.006061
 20
35.544926
 30
0.0
  0
LWPOLYLINE
  5
185
100
AcDbEntity
  8
0
 62
7
100
AcDbPolyline
 90
5
 70
1
 10
168.956038
 20
35.544926
 30
0.0
 10
168.956038
 20
21.544908
 30
0.0
 10
154.956020
 20
21.544908
 30
0.0
 10
154.956020
 20
35.544926
 30
0.0
 10
168.956038
 20
35.544926
 30
0.0
  0
LWPOLYLINE
  5
186
100
AcDbEntity
  8
0
 62
7
100
AcDbPolyline
 90
5
 70
1
 10
149.906014
 20
35.544926
 30
0.0
 10
149.906014
 20
21.544908
 30
0.0
 10
135.905996
 20
21.544908
 30
0.0
 10
135.905996
 20
35.544926
 30
0.0
 10
149.906014
 20
35.544926
 30
0.0
  0
ENDSEC
  0
SECTION
  2
OBJECTS
  0
DICTIONARY
  5
C
330
0
100
AcDbDictionary
  3
ACAD_GROUP
350
D
  3
ACAD_MLINESTYLE
350
17
  0
DICTIONARY
  5
D
330
C
100
AcDbDictionary
  0
DICTIONARY
  5
1A
330
C
100
AcDbDictionary
  0
DICTIONARY
  5
17
330
C
100
AcDbDictionary
  3
STANDARD
350
18
  0
DICTIONARY
  5
19
330
C
100
AcDbDictionary
  0
ENDSEC
  0
EOF
